<svg width="25" height="25" viewBox="0 0 25 25" fill="none" xmlns="http://www.w3.org/2000/svg">
<path d="M16.4629 5.32383C15.3844 4.43828 14.0043 3.90625 12.5 3.90625C9.04805 3.90625 6.25 6.7043 6.25 10.1562C6.25 13.6082 9.04805 16.4062 12.5 16.4062C15.952 16.4062 18.75 13.6082 18.75 10.1562C18.75 9.42891 18.6195 8.73359 18.391 8.08437C17.3844 7.5125 16.6582 6.50742 16.4629 5.32383Z" fill="#FAB400"/>
<path d="M3.125 16.4062H5.46875V21.875H3.125V16.4062Z" fill="#11E09D"/>
<path d="M3.125 16.4062H3.90625V21.875H3.125V16.4062Z" fill="#11E09D"/>
<path d="M19.8734 18.8051L14.2074 19.5133C14.1109 19.5254 14.0137 19.5312 13.9164 19.5312H11.7188C11.2871 19.5312 10.9375 19.1816 10.9375 18.75L14.2156 18.0945C14.5809 18.0215 14.8438 17.7008 14.8438 17.3281V17.1875H5.46875V20.3125L11.7047 21.698C12.2262 21.8141 12.7688 21.7941 13.2805 21.6406L20.034 19.6145C20.1992 19.5652 20.3125 19.4133 20.3125 19.2406V19.1926C20.3125 18.9574 20.1066 18.7758 19.8734 18.8051Z" fill="#11E09D"/>
<path d="M7.8125 10.1562C7.8125 6.96953 10.1992 4.34531 13.2812 3.96016C13.0246 3.92812 12.7652 3.90625 12.5 3.90625C9.04805 3.90625 6.25 6.7043 6.25 10.1562C6.25 13.6082 9.04805 16.4062 12.5 16.4062C12.7652 16.4062 13.0246 16.3844 13.2812 16.3523C10.1992 15.9672 7.8125 13.343 7.8125 10.1562Z" fill="#DC9600"/>
<path d="M12.5 14.0625C14.6574 14.0625 16.4062 12.3136 16.4062 10.1562C16.4062 7.99889 14.6574 6.25 12.5 6.25C10.3426 6.25 8.59375 7.99889 8.59375 10.1562C8.59375 12.3136 10.3426 14.0625 12.5 14.0625Z" fill="#BE7800"/>
<path d="M13.75 8.8168V7.92422H12.9168V7.03125H12.0832V7.92422H11.25V10.6027H12.9168V11.4957H11.25V12.3883H12.0832V13.2812H12.9168V12.3883H13.75V9.70977H12.0832V8.8168H13.75Z" fill="#FAB400"/>
<path d="M20.3125 7.8125C22.0384 7.8125 23.4375 6.41339 23.4375 4.6875C23.4375 2.96161 22.0384 1.5625 20.3125 1.5625C18.5866 1.5625 17.1875 2.96161 17.1875 4.6875C17.1875 6.41339 18.5866 7.8125 20.3125 7.8125Z" fill="#11E09D"/>
<path d="M17.9688 4.6875C17.9688 3.09414 19.1621 1.78203 20.7031 1.58945C20.575 1.57344 20.4449 1.5625 20.3125 1.5625C18.5867 1.5625 17.1875 2.96172 17.1875 4.6875C17.1875 6.41328 18.5867 7.8125 20.3125 7.8125C20.4449 7.8125 20.575 7.80156 20.7031 7.78555C19.1621 7.59297 17.9688 6.28086 17.9688 4.6875Z" fill="#11E09D"/>
<path d="M22.2656 3.90625L19.9219 6.25L18.3594 4.6875L19.1406 3.90625L19.9219 4.6875L21.4844 3.125L22.2656 3.90625Z" fill="#F0F0F0"/>
</svg>
