<svg width="25" height="25" viewBox="0 0 25 25" fill="none" xmlns="http://www.w3.org/2000/svg">
<g clip-path="url(#clip0_350_63)">
<path d="M24.622 5.7742C24.6202 5.76366 24.6206 5.75252 24.6179 5.74217C24.6103 5.7137 24.5991 5.68632 24.5845 5.66073C24.5796 5.65194 24.5722 5.64491 24.5663 5.6367C24.5558 5.62021 24.5439 5.60466 24.5308 5.59022C24.5228 5.58202 24.5126 5.57635 24.5038 5.56893C24.4908 5.55691 24.4768 5.54594 24.462 5.53612L24.4595 5.53514L24.4573 5.53358L21.6017 3.89745C21.5499 3.86783 21.4914 3.85225 21.4317 3.85225C21.3721 3.85225 21.3135 3.86783 21.2618 3.89745L18.4046 5.53338L18.4024 5.53495L18.3999 5.53592C18.3851 5.5458 18.371 5.55683 18.3579 5.56893C18.3491 5.57616 18.3384 5.58202 18.3312 5.59002C18.3178 5.60464 18.3058 5.62039 18.2952 5.6371C18.2895 5.6453 18.2823 5.65213 18.2774 5.66073C18.2628 5.68633 18.2516 5.7137 18.244 5.74217C18.2413 5.75213 18.2417 5.76288 18.2399 5.77303C18.2359 5.79173 18.2334 5.81075 18.2325 5.82987V6.52616L15.6913 4.93475C15.695 4.91764 15.6974 4.90027 15.6983 4.8828V2.02616C15.6974 2.00736 15.695 1.98868 15.6909 1.9703C15.6892 1.95975 15.6896 1.94862 15.6868 1.93827C15.6792 1.90986 15.668 1.88255 15.6534 1.85702C15.6466 1.84687 15.6392 1.83709 15.6313 1.82772C15.6219 1.8132 15.6114 1.79942 15.5999 1.78651C15.5896 1.77741 15.5788 1.76894 15.5675 1.76112C15.5559 1.75071 15.5437 1.74112 15.5308 1.73241H15.5288L15.5274 1.72948L12.67 0.0935405C12.6183 0.0639217 12.5597 0.0483398 12.5001 0.0483398C12.4405 0.0483398 12.3819 0.0639217 12.3302 0.0935405L9.47275 1.72948L9.47041 1.73124H9.46846C9.45549 1.74 9.44316 1.74966 9.43154 1.76014C9.42032 1.7679 9.40956 1.77631 9.39932 1.78534C9.38764 1.79843 9.377 1.8124 9.36748 1.82713C9.35976 1.83632 9.35253 1.84591 9.3458 1.85585C9.3312 1.88144 9.31998 1.90882 9.3124 1.93729C9.30967 1.94725 9.31006 1.95799 9.3083 1.96815C9.30421 1.98685 9.30173 2.00586 9.30088 2.02499V4.8828C9.30185 4.90034 9.3042 4.91778 9.30791 4.93495L6.76728 6.52616V5.83006C6.76638 5.81127 6.7639 5.79258 6.75986 5.7742C6.75811 5.76366 6.7585 5.75252 6.75576 5.74217C6.74819 5.7137 6.73696 5.68632 6.72236 5.66073C6.71748 5.65194 6.71006 5.64491 6.7042 5.6367C6.69371 5.62021 6.68182 5.60466 6.66865 5.59022C6.66065 5.58202 6.65049 5.57635 6.6417 5.56893C6.62865 5.55691 6.61468 5.54594 6.5999 5.53612L6.59736 5.53514L6.59521 5.53358L3.73916 3.89745C3.68743 3.86783 3.62885 3.85225 3.56924 3.85225C3.50963 3.85225 3.45105 3.86783 3.39932 3.89745L0.542676 5.53338L0.540527 5.53495L0.537988 5.53592C0.523139 5.5458 0.509098 5.55683 0.495996 5.56893C0.487207 5.57616 0.476465 5.58202 0.469238 5.59002C0.455909 5.60464 0.443884 5.62039 0.433301 5.6371C0.427637 5.6453 0.42041 5.65213 0.415527 5.66073C0.400936 5.68633 0.389711 5.7137 0.382129 5.74217C0.379395 5.75213 0.379785 5.76288 0.378027 5.77303C0.373938 5.79173 0.371455 5.81075 0.370605 5.82987V8.68651C0.370597 8.74788 0.387115 8.80813 0.418423 8.86091C0.449731 8.9137 0.494675 8.95708 0.548535 8.98651L3.22725 10.4492V14.3629L0.542676 15.9004L0.540527 15.9019L0.537988 15.9029C0.523139 15.9128 0.509098 15.9238 0.495996 15.9359C0.487207 15.9432 0.476465 15.949 0.469238 15.957C0.455909 15.9716 0.443884 15.9874 0.433301 16.0041C0.427637 16.0123 0.42041 16.0191 0.415527 16.0277C0.400936 16.0533 0.389711 16.0807 0.382129 16.1092C0.379395 16.1191 0.379785 16.1299 0.378027 16.14C0.373938 16.1587 0.371455 16.1777 0.370605 16.1969V19.0535C0.370636 19.1149 0.387212 19.1752 0.418591 19.228C0.44997 19.2808 0.494993 19.3241 0.548926 19.3535L3.40537 20.9127C3.42143 20.9205 3.43808 20.927 3.45518 20.9322C3.46436 20.9355 3.47295 20.9404 3.48232 20.9428C3.53917 20.9582 3.59911 20.9582 3.65596 20.9428C3.66533 20.9402 3.67393 20.9353 3.68311 20.9322C3.7002 20.927 3.71685 20.9205 3.73291 20.9127L6.1583 19.5887L9.30283 21.6822V23.0988C9.30282 23.1602 9.31934 23.2204 9.35065 23.2732C9.38196 23.326 9.4269 23.3694 9.48076 23.3988L12.3372 24.958C12.3533 24.9658 12.3699 24.9723 12.387 24.9775C12.3962 24.9808 12.4048 24.9857 12.4142 24.9881C12.471 25.0035 12.5309 25.0035 12.5878 24.9881C12.5972 24.9855 12.6058 24.9806 12.6149 24.9775C12.632 24.9723 12.6487 24.9658 12.6647 24.958L15.5204 23.3984C15.5743 23.369 15.6192 23.3256 15.6505 23.2728C15.6818 23.22 15.6983 23.1598 15.6983 23.0984V21.6818L18.8429 19.5883L21.2683 20.9123C21.2843 20.9201 21.301 20.9266 21.3181 20.9318C21.3272 20.9351 21.3358 20.94 21.3452 20.9424C21.4021 20.9578 21.462 20.9578 21.5188 20.9424C21.5282 20.9398 21.5368 20.9349 21.546 20.9318C21.5631 20.9266 21.5797 20.9201 21.5958 20.9123L24.4513 19.3535C24.5051 19.3241 24.5501 19.2807 24.5814 19.2279C24.6127 19.1751 24.6292 19.1149 24.6292 19.0535V16.1971C24.6283 16.1783 24.6258 16.1596 24.6218 16.1412C24.62 16.1306 24.6204 16.1195 24.6177 16.1092C24.6101 16.0807 24.5989 16.0533 24.5843 16.0277C24.5794 16.0189 24.572 16.0119 24.5661 16.0037C24.5556 15.9872 24.5437 15.9717 24.5306 15.9572C24.5226 15.949 24.5124 15.9433 24.5036 15.9359C24.4906 15.9239 24.4766 15.9129 24.4618 15.9031L24.4593 15.9021L24.4571 15.9006L21.7726 14.3631V10.4492L24.4511 8.98709C24.5049 8.95767 24.5499 8.91429 24.5812 8.8615C24.6125 8.80871 24.629 8.74847 24.629 8.68709V5.83006C24.6282 5.81128 24.6259 5.79259 24.622 5.7742ZM14.5688 20.283L12.5001 21.4123L10.4313 20.283L10.3438 20.2351L12.5001 19.0004L14.6563 20.2344L14.5688 20.283ZM6.08369 8.48378L3.91084 9.66971V7.59217L6.08369 6.40624V8.48378ZM3.56904 14.9549L5.72529 16.1896L5.63779 16.2375L3.56904 17.3668L1.50029 16.2375L1.41279 16.1896L3.56904 14.9549ZM6.39678 15.7865L3.91084 14.3627V10.4492L6.17529 9.21307L9.30186 11.2474V13.7412L6.39678 15.7865ZM9.98545 4.67987V2.60233L12.1583 3.78905V5.866L9.98545 4.67987ZM15.0147 4.67987L12.8419 5.866V3.78905L15.0147 2.60272V4.67987ZM12.5001 9.81991L14.6563 11.0547L14.5688 11.1025L12.5001 12.2318L10.4313 11.1025L10.3438 11.0547L12.5001 9.81991ZM9.98545 11.6381L12.1583 12.8242V14.9023L9.98545 13.7158V11.6381ZM12.8419 12.8242L15.0147 11.6381V13.7158L12.8419 14.9023V12.8242ZM15.6983 11.2474L18.8249 9.21249L21.0894 10.4492V14.3629L18.6034 15.7867L15.6983 13.7412V11.2474ZM21.089 7.59217V9.66971L18.9165 8.48378V6.40624L21.089 7.59217ZM18.9165 18.8508V16.773L21.0894 17.9592V20.0367L18.9165 18.8508ZM23.4999 16.2375L21.4312 17.3668L19.3622 16.2375L19.2747 16.1896L21.431 14.9549L23.5872 16.1896L23.4999 16.2375ZM21.4312 4.58788L23.5874 5.82264L23.4999 5.87049L21.4312 6.99979L19.3622 5.87049L19.2747 5.82264L21.4312 4.58788ZM18.2448 8.7742L15.3452 10.6615L12.8419 9.22792V6.64491L15.1349 5.39295L18.2327 7.3328V8.68631C18.2329 8.71601 18.237 8.74556 18.2448 8.7742ZM12.5001 0.784165L14.6562 2.01913L12.5946 3.14452L12.5001 3.19608L12.4056 3.14452L10.344 2.01893L12.5001 0.784165ZM9.86533 5.39354L12.1583 6.64549V9.22792L9.65498 10.6615L6.75537 8.7742C6.76315 8.74555 6.76716 8.716 6.76728 8.68631V7.3328L9.86533 5.39354ZM3.56904 4.58788L5.72529 5.82264L5.63779 5.87049L3.56904 6.99979L1.50029 5.87049L1.41279 5.82264L3.56904 4.58788ZM1.05479 6.40624L3.22764 7.59237V9.66971L1.05479 8.48378V6.40624ZM1.05479 16.7732L3.22764 17.9594V20.0369L1.05479 18.8508V16.7732ZM3.91123 17.9594L6.08408 16.7732V18.8508L3.91123 20.0367V17.9594ZM6.74834 19.1601C6.76056 19.1258 6.76715 19.0897 6.76787 19.0533V16.3619L9.6665 14.3205L12.1583 15.6807V18.4084L9.47275 19.9459L9.4706 19.9474L9.46807 19.9484C9.45322 19.9583 9.43918 19.9693 9.42607 19.9814C9.41729 19.9887 9.40654 19.9945 9.39932 20.0025C9.38599 20.0171 9.37396 20.0329 9.36338 20.0496C9.35771 20.0578 9.35049 20.0646 9.34561 20.0732C9.33101 20.0988 9.31979 20.1262 9.31221 20.1547C9.30947 20.1646 9.30986 20.1754 9.30811 20.1855C9.30402 20.2042 9.30153 20.2232 9.30068 20.2424V20.8607L6.74834 19.1601ZM9.98545 21.4974V20.8183L12.1583 22.0045V24.082L9.98545 22.8961V21.4974ZM12.8419 24.082V22.0047L15.0147 20.8185V22.8963L12.8419 24.082ZM15.6983 20.2424C15.6974 20.2236 15.695 20.2049 15.6909 20.1865C15.6892 20.176 15.6896 20.1648 15.6868 20.1545C15.6792 20.126 15.668 20.0986 15.6534 20.073C15.6485 20.0642 15.6411 20.0572 15.6353 20.049C15.6248 20.0325 15.6129 20.017 15.5997 20.0025C15.5917 19.9943 15.5815 19.9887 15.5728 19.9812C15.5597 19.9692 15.5457 19.9582 15.531 19.9484L15.5284 19.9474L15.5263 19.9459L12.8419 18.4084V15.6807L15.3337 14.3205L18.2329 16.3619V19.0535C18.2336 19.0899 18.2402 19.126 18.2524 19.1603L15.6989 20.8609L15.6983 20.2424ZM21.7726 20.0365V17.9592L23.9454 16.773V18.8508L21.7726 20.0365ZM21.7726 9.66952V7.59217L23.9454 6.40624V8.48378L21.7726 9.66952Z" fill="#11E09D"/>
</g>
<defs>
<clipPath id="clip0_350_63">
<rect width="25" height="25" fill="white"/>
</clipPath>
</defs>
</svg>
