<svg width="45" height="45" viewBox="0 0 45 45" fill="none" xmlns="http://www.w3.org/2000/svg">
<g clip-path="url(#clip0_510_46)">
<path d="M39.9436 24.6982C39.9436 35.5465 31.1501 44.3408 20.3019 44.3408C9.4536 44.3408 0.65918 35.5464 0.65918 24.6982C0.65918 13.8499 9.45352 5.0564 20.3019 5.0564V24.6981H39.9436V24.6982Z" fill="#11E09D"/>
<path d="M21.5877 44.2995C21.1632 44.3267 20.7343 44.3408 20.3019 44.3408C9.45352 44.3408 0.65918 35.5464 0.65918 24.6982C0.65918 13.8499 9.45352 5.0564 20.3019 5.0564V5.22339C10.669 6.48286 3.23086 14.7217 3.23086 24.6982C3.23086 35.114 11.3388 43.6368 21.5877 44.2995Z" fill="#11E09D"/>
<path d="M16.7891 20.1687C16.1018 19.6296 15.8083 18.5865 16.0231 17.4466C16.2201 16.4012 16.924 15.1378 18.3091 14.6718V21.1289C17.7341 20.8236 17.2161 20.5036 16.7891 20.1687ZM24.7468 30.6411C24.5294 31.9337 23.7434 33.2932 22.426 34.0872V26.2506C25.0511 27.4509 24.8733 29.8887 24.7468 30.6411ZM27.1161 26.4427C26.7575 25.7897 26.2978 25.2044 25.7476 24.6981H20.3019V8.0271C19.7596 8.0438 19.2709 8.26968 18.9123 8.62827C18.5397 9.00005 18.3094 9.51509 18.3094 10.0837V11.403C18.044 11.4601 17.7733 11.5287 17.4973 11.6122C15.148 12.3197 13.3928 14.3306 12.9164 16.861C12.4814 19.1655 13.2179 21.3865 14.8377 22.6565C15.714 23.3438 16.8047 23.9722 18.3094 24.6384V34.7502C16.9717 34.6641 16.07 34.3583 14.5811 33.3879C13.8446 32.9081 12.8198 33.1014 12.3496 33.8441C11.8872 34.5727 12.0947 35.5395 12.8189 36.0132C14.9573 37.4125 16.4101 37.8167 18.3094 37.9152V39.3135C18.3094 40.45 19.2305 41.3719 20.3678 41.3719C20.9356 41.3719 21.4506 41.1417 21.8233 40.769C22.1959 40.3963 22.4262 39.8813 22.4262 39.3135V37.5408C23.4985 37.1927 24.4793 36.6232 25.3284 35.8436C26.6625 34.6175 27.5634 32.9555 27.8649 31.1652C28.1426 29.5092 27.8772 27.8323 27.1161 26.4427Z" fill="#E9D25D"/>
<path d="M43.5997 21.0433H23.957V1.40161C34.8054 1.40161 43.5997 10.195 43.5997 21.0433Z" fill="#11E09D"/>
<path d="M27.2846 11.8439C27.9561 12.4021 28.9527 12.3106 29.5108 11.64C30.0698 10.9686 29.9784 9.97187 29.3069 9.41377C28.9791 9.14043 27.8321 8.27119 26.0813 7.81943V6.429C26.0813 5.2917 25.1594 4.37061 24.0229 4.37061C24.001 4.37061 23.979 4.37061 23.957 4.37236V21.0435H29.4027C28.6469 20.3456 27.7188 19.7963 26.65 19.4184C26.4619 19.3516 26.2721 19.283 26.0813 19.2145V11.1364C26.7221 11.4054 27.1369 11.7209 27.2846 11.8439Z" fill="#E9D25D"/>
<path d="M38.1675 13.0059C41.5769 13.0059 44.3408 10.242 44.3408 6.83253C44.3408 3.42308 41.5769 0.65918 38.1675 0.65918C34.758 0.65918 31.9941 3.42308 31.9941 6.83253C31.9941 10.242 34.758 13.0059 38.1675 13.0059Z" fill="#11E09D"/>
<path d="M39.1854 12.9217C38.854 12.9779 38.5139 13.0061 38.1676 13.0061C34.7583 13.0061 31.9941 10.2419 31.9941 6.83262C31.9941 3.42334 34.7583 0.65918 38.1676 0.65918C38.5139 0.65918 38.854 0.687305 39.1854 0.743555C36.2595 1.22783 34.0288 3.76963 34.0288 6.83262C34.0288 9.89561 36.2596 12.4374 39.1854 12.9217Z" fill="#11E09D"/>
<path d="M39.9436 24.039H20.961V5.0564C20.961 4.69235 20.666 4.39722 20.3019 4.39722C14.879 4.39722 9.78082 6.50879 5.94633 10.343C2.11184 14.1773 0 19.2754 0 24.6982C0 30.121 2.11175 35.2192 5.94624 39.0537C9.78082 42.8882 14.8791 45 20.3019 45C25.7246 45 30.8227 42.8882 34.6569 39.0536C38.4912 35.2192 40.6027 30.121 40.6027 24.6982C40.6027 24.3341 40.3077 24.039 39.9436 24.039ZM33.7247 38.1215C30.1394 41.707 25.3724 43.6816 20.3019 43.6816C15.2313 43.6816 10.464 41.707 6.8785 38.1215C3.293 34.536 1.31836 29.7689 1.31836 24.6982C1.31836 19.6276 3.293 14.8606 6.8785 11.2753C10.3081 7.84587 14.8191 5.89021 19.6427 5.72674V7.46442C19.194 7.58791 18.7824 7.82583 18.4467 8.16157C17.933 8.67406 17.6502 9.35662 17.6502 10.0837V10.8835C17.5341 10.9144 17.4196 10.9469 17.3072 10.9809C14.7213 11.7596 12.7906 13.966 12.2687 16.7386C11.7877 19.2861 12.6163 21.7524 14.4309 23.1751C15.2821 23.8428 16.3124 24.4479 17.6503 25.0641V28.546C17.6503 28.9101 17.9453 29.2052 18.3095 29.2052C18.6736 29.2052 18.9686 28.9101 18.9686 28.546V24.6384C18.9686 24.3776 18.8148 24.1413 18.5763 24.0357C17.1475 23.403 16.0887 22.7999 15.2445 22.1377C13.8188 21.02 13.175 19.0449 13.5642 16.9829C13.9948 14.6956 15.5747 12.8795 17.6883 12.243C17.9324 12.1691 18.1882 12.1033 18.4482 12.0474C18.7518 11.9821 18.9687 11.7136 18.9687 11.403V10.0837C18.9687 9.70941 19.1141 9.3582 19.3785 9.09436C19.4586 9.0142 19.5479 8.94617 19.6429 8.88852V24.6982C19.6429 25.0622 19.9379 25.3574 20.302 25.3574H25.4833C25.9013 25.7741 26.2556 26.2449 26.538 26.7594C27.2281 28.0191 27.4685 29.5449 27.2151 31.0557C26.9377 32.7028 26.1093 34.2308 24.8827 35.358C24.1087 36.0687 23.2138 36.5922 22.2229 36.9138C21.9511 37.0019 21.7672 37.2551 21.7672 37.5408V39.3135C21.7672 39.6872 21.6216 40.0386 21.3572 40.3029C21.093 40.5672 20.7416 40.7128 20.3679 40.7128C19.5964 40.7128 18.9687 40.0851 18.9687 39.3136V37.9153C18.9687 37.5645 18.694 37.2752 18.3437 37.257C16.6791 37.1707 15.3005 36.8492 13.1798 35.4616C12.7606 35.1874 12.6379 34.6202 12.9066 34.1967C13.0321 33.9986 13.2347 33.8604 13.4775 33.8075C13.7347 33.7515 14.006 33.7999 14.2214 33.9402C15.7583 34.9418 16.7793 35.3122 18.2673 35.408C18.4481 35.4201 18.6276 35.3556 18.7604 35.2311C18.8934 35.1065 18.9687 34.9324 18.9687 34.7502V31.1828C18.9687 30.8187 18.6737 30.5236 18.3095 30.5236C17.9454 30.5236 17.6504 30.8187 17.6504 31.1828V34.0164C16.7543 33.872 16.0266 33.5431 14.9411 32.8356C14.4322 32.5042 13.7967 32.3887 13.1969 32.5194C12.6069 32.6479 12.1083 32.9931 11.793 33.4909C11.1406 34.5192 11.439 35.8982 12.458 36.5648C14.5474 37.932 16.0536 38.3781 17.6503 38.5286V39.3135C17.6503 40.8121 18.8694 42.0311 20.3679 42.0311C21.0937 42.0311 21.776 41.7484 22.2893 41.2351C22.8027 40.7218 23.0854 40.0393 23.0854 39.3134V38.0055C24.0772 37.621 24.9799 37.0583 25.7744 36.3288C27.2159 35.0042 28.1892 33.2092 28.5151 31.2741C28.8172 29.4723 28.5258 27.6441 27.6939 26.1254C27.5477 25.8593 27.3859 25.6029 27.2092 25.3573H39.2734C39.1097 30.1809 37.1541 34.6918 33.7247 38.1215Z" fill="black"/>
<path d="M22.1016 34.6612C22.2024 34.718 22.3141 34.7464 22.4258 34.7464C22.5437 34.7464 22.6616 34.7148 22.7661 34.6518C24.1419 33.8224 25.1253 32.364 25.3967 30.7504C25.5383 29.9081 25.7623 27.0515 22.6999 25.6511C22.4958 25.5576 22.2583 25.5747 22.0696 25.6959C21.8808 25.8172 21.7666 26.0261 21.7666 26.2506V34.0872C21.7667 34.3249 21.8947 34.5443 22.1016 34.6612ZM23.085 27.4388C24.2734 28.4678 24.2048 29.8881 24.0966 30.5317C23.9626 31.329 23.6038 32.0759 23.085 32.6761V27.4388Z" fill="black"/>
<path d="M18.6935 14.1366C18.5212 14.0128 18.2998 13.9794 18.0985 14.0472C16.4408 14.6048 15.6046 16.1059 15.375 17.3247C15.1144 18.7075 15.5002 19.996 16.382 20.6875C16.8199 21.031 17.3492 21.3659 17.9997 21.7113C18.0965 21.7626 18.2027 21.7882 18.3088 21.7882C18.4266 21.7882 18.5441 21.7567 18.6485 21.694C18.8467 21.5748 18.968 21.3604 18.968 21.129V14.6719C18.968 14.4597 18.8658 14.2605 18.6935 14.1366ZM17.6496 19.9763C17.484 19.8664 17.3325 19.7575 17.1955 19.6502C16.7101 19.2694 16.504 18.4525 16.6705 17.5688C16.7823 16.9752 17.0932 16.2881 17.6496 15.7989V19.9763Z" fill="black"/>
<path d="M38.167 0C35.941 0 33.9607 1.07042 32.7124 2.72312C29.9723 1.40889 27.0296 0.742676 23.9561 0.742676C23.5919 0.742676 23.2969 1.03781 23.2969 1.40186V21.0437C23.2969 21.4077 23.5919 21.7028 23.9561 21.7028H43.5986C43.9628 21.7028 44.2578 21.4077 44.2578 21.0437C44.2578 17.9722 43.5919 15.0305 42.2781 12.2905C42.5276 12.1017 42.7667 11.8957 42.9919 11.671C43.2497 11.4139 43.2502 10.9965 42.9931 10.7388C42.736 10.4811 42.3186 10.4805 42.0609 10.7377C41.0206 11.7754 39.6379 12.347 38.167 12.347C35.1264 12.347 32.6527 9.87328 32.6527 6.83271C32.6527 3.79213 35.1265 1.31836 38.167 1.31836C41.2075 1.31836 43.6813 3.79204 43.6813 6.83262C43.6813 7.49725 43.5647 8.1457 43.3348 8.76006C43.2071 9.10099 43.3801 9.48085 43.721 9.60855C44.0621 9.73626 44.4419 9.56329 44.5694 9.22236C44.8549 8.45965 44.9997 7.65562 44.9997 6.83262C44.9997 3.0651 41.9345 0 38.167 0V0ZM24.6152 5.16349C25.0907 5.38726 25.4215 5.8696 25.4215 6.42902V7.81945C25.4215 8.12004 25.6248 8.38257 25.9159 8.45772C27.5474 8.87871 28.6003 9.68344 28.8849 9.92074C29.0741 10.0781 29.1906 10.2996 29.2131 10.5446C29.2356 10.7897 29.1611 11.029 29.0034 11.2184C28.6787 11.6087 28.0961 11.6621 27.7057 11.3375C27.5356 11.1959 27.0618 10.8335 26.3356 10.5287C26.1321 10.4432 25.8993 10.4654 25.7155 10.5876C25.5318 10.7097 25.4213 10.9158 25.4213 11.1365V19.2146C25.4213 19.4926 25.5957 19.7409 25.8576 19.8349L25.9908 19.8828C26.1375 19.9356 26.2836 19.9881 26.4293 20.0399C26.7162 20.1413 26.9903 20.2574 27.254 20.3846H24.6152V5.16349ZM38.167 13.6652C39.2167 13.6652 40.2296 13.429 41.1468 12.984C42.243 15.313 42.8419 17.7962 42.9284 20.3845H29.6494C28.8636 19.707 27.9308 19.1724 26.8698 18.7971C26.8266 18.7818 26.7832 18.7663 26.7398 18.7508V12.2553C26.7969 12.2973 26.838 12.3304 26.8625 12.3508C27.8122 13.1402 29.2271 13.0104 30.0168 12.0617C30.3998 11.6016 30.5806 11.02 30.5261 10.4242C30.4714 9.82819 30.1879 9.28934 29.7284 8.90745C29.4214 8.65151 28.3596 7.83668 26.7398 7.32322V6.42894C26.7398 5.13422 25.8294 4.04868 24.6152 3.77736V2.07202C27.2054 2.15851 29.6897 2.75766 32.0188 3.85436C31.5807 4.75506 31.3344 5.76554 31.3344 6.83262C31.3344 10.6001 34.3995 13.6652 38.167 13.6652Z" fill="black"/>
<path d="M38.1678 11.2329C38.532 11.2329 38.827 10.9377 38.827 10.5737V7.4918H41.9089C42.273 7.4918 42.5681 7.19666 42.5681 6.83262C42.5681 6.46857 42.273 6.17344 41.9089 6.17344H38.827V3.09155C38.827 2.72751 38.532 2.43237 38.1678 2.43237C37.8037 2.43237 37.5086 2.72751 37.5086 3.09155V6.17344H34.4268C34.0626 6.17344 33.7676 6.46857 33.7676 6.83262C33.7676 7.19666 34.0626 7.4918 34.4268 7.4918H37.5086V10.5737C37.5086 10.9377 37.8038 11.2329 38.1678 11.2329Z" fill="black"/>
</g>
<defs>
<clipPath id="clip0_510_46">
<rect width="45" height="45" fill="white"/>
</clipPath>
</defs>
</svg>
