<svg width="104" height="104" viewBox="0 0 104 104" fill="none" xmlns="http://www.w3.org/2000/svg">
<g clip-path="url(#clip0_510_108)">
<path d="M92.314 57.0804C92.314 82.1521 71.9914 102.477 46.9198 102.477C21.8483 102.477 1.52344 82.1519 1.52344 57.0804C1.52344 32.0089 21.8481 11.686 46.9198 11.686V57.0802H92.314V57.0804Z" fill="#11E09D"/>
<path d="M49.8916 102.381C48.9105 102.444 47.9192 102.477 46.9198 102.477C21.8481 102.477 1.52344 82.1519 1.52344 57.0804C1.52344 32.0089 21.8481 11.686 46.9198 11.686V12.072C24.6573 14.9828 7.46688 34.0237 7.46688 57.0804C7.46688 81.1525 26.2052 100.85 49.8916 102.381Z" fill="#11E09D"/>
<path d="M38.801 46.6123C37.2126 45.3665 36.5344 42.9558 37.0308 40.3213C37.486 37.9053 39.1128 34.9854 42.3141 33.9084V48.8314C40.985 48.1259 39.788 47.3864 38.801 46.6123ZM57.1922 70.8152C56.6898 73.8026 54.8733 76.9445 51.8287 78.7795V60.6683C57.8954 63.4424 57.4845 69.0763 57.1922 70.8152ZM62.6678 61.1123C61.8391 59.6031 60.7767 58.2503 59.5052 57.0803H46.9195V18.5518C45.6662 18.5904 44.5369 19.1124 43.7081 19.9411C42.8469 20.8004 42.3147 21.9907 42.3147 23.3049V26.3538C41.7012 26.4858 41.0756 26.6443 40.4378 26.8372C35.0083 28.4724 30.9519 33.1199 29.8509 38.9679C28.8455 44.2938 30.5477 49.4268 34.2912 52.3619C36.3164 53.9504 38.8372 55.4027 42.3147 56.9424V80.3119C39.2231 80.1129 37.1391 79.406 33.6981 77.1635C31.9959 76.0544 29.6275 76.5013 28.5408 78.2177C27.4723 79.9016 27.9517 82.136 29.6255 83.2308C34.5675 86.4646 37.9252 87.3989 42.3147 87.6264V90.8582C42.3147 93.4846 44.4434 95.6154 47.0719 95.6154C48.3841 95.6154 49.5744 95.0832 50.4356 94.2219C51.2969 93.3607 51.8291 92.1703 51.8291 90.8582V86.7611C54.3072 85.9568 56.5741 84.6405 58.5362 82.8388C61.6197 80.0052 63.7017 76.1641 64.3984 72.0264C65.0403 68.1994 64.4269 64.3237 62.6678 61.1123Z" fill="#E9D25D"/>
<path d="M100.763 48.6334H55.3665V3.23926C80.4382 3.23926 100.763 23.5617 100.763 48.6334Z" fill="#11E09D"/>
<path d="M63.0568 27.3723C64.6086 28.6621 66.9121 28.4509 68.2019 26.9011C69.4938 25.3492 69.2825 23.0457 67.7307 21.7559C66.973 21.1242 64.3222 19.1153 60.276 18.0712V14.8578C60.276 12.2293 58.1452 10.1006 55.5188 10.1006C55.468 10.1006 55.4172 10.1006 55.3665 10.1046V48.6334H67.9521C66.2052 47.0206 64.0602 45.751 61.5902 44.8776C61.1555 44.7232 60.7168 44.5648 60.276 44.4064V25.7371C61.7568 26.3587 62.7155 27.0879 63.0568 27.3723Z" fill="#E9D25D"/>
<path d="M88.209 30.058C96.0886 30.058 102.476 23.6703 102.476 15.7907C102.476 7.91112 96.0886 1.52344 88.209 1.52344C80.3293 1.52344 73.9417 7.91112 73.9417 15.7907C73.9417 23.6703 80.3293 30.058 88.209 30.058Z" fill="#11E09D"/>
<path d="M90.5613 29.8634C89.7956 29.9934 89.0095 30.0584 88.2091 30.0584C80.3299 30.0584 73.9417 23.6702 73.9417 15.7909C73.9417 7.91172 80.3299 1.52344 88.2091 1.52344C89.0095 1.52344 89.7956 1.58844 90.5613 1.71844C83.7993 2.83766 78.644 8.71203 78.644 15.7909C78.644 22.8698 83.7995 28.7442 90.5613 29.8634Z" fill="#11E09D"/>
<path d="M92.314 55.557H48.4433V11.686C48.4433 10.8447 47.7614 10.1626 46.9198 10.1626C34.387 10.1626 22.6046 15.0427 13.7426 23.904C4.88069 32.7655 0 44.5478 0 57.0804C0 69.613 4.88048 81.3957 13.7424 90.2576C22.6046 99.1196 34.3872 104 46.9198 104C59.4524 104 71.2347 99.1196 80.096 90.2574C88.9574 81.3957 93.8374 69.613 93.8374 57.0804C93.8374 56.2391 93.1556 55.557 92.314 55.557ZM77.9415 88.1031C69.6554 96.3896 58.6385 100.953 46.9198 100.953C35.2012 100.953 24.1835 96.3896 15.897 88.1031C7.61048 79.8166 3.04687 68.7993 3.04687 57.0804C3.04687 45.3617 7.61048 34.3446 15.897 26.0585C23.8231 18.1328 34.2487 13.6131 45.3964 13.2353V17.2513C44.3595 17.5366 43.4082 18.0865 42.6323 18.8624C41.4452 20.0469 40.7916 21.6243 40.7916 23.3046V25.1532C40.5232 25.2245 40.2586 25.2997 39.9988 25.3783C34.0226 27.178 29.5606 32.2772 28.3542 38.685C27.2427 44.5724 29.1576 50.2725 33.3515 53.5605C35.3186 55.1034 37.6998 56.5019 40.7918 57.926V65.9732C40.7918 66.8146 41.4737 67.4967 42.3152 67.4967C43.1567 67.4967 43.8386 66.8146 43.8386 65.9732V56.9423C43.8386 56.3394 43.4832 55.7934 42.9319 55.5492C39.6297 54.0872 37.1828 52.6933 35.2316 51.1628C31.9367 48.5796 30.4488 44.015 31.3485 39.2495C32.3436 33.9634 35.995 29.7662 40.8797 28.2952C41.4438 28.1243 42.0349 27.9722 42.6357 27.843C43.3375 27.6921 43.8388 27.0715 43.8388 26.3537V23.3048C43.8388 22.4397 44.1748 21.628 44.7858 21.0182C44.9711 20.833 45.1774 20.6757 45.3968 20.5425V57.0804C45.3968 57.9217 46.0787 58.6038 46.9202 58.6038H58.8947C59.8607 59.5669 60.6795 60.655 61.3324 61.8441C62.9271 64.7553 63.4827 68.2817 62.897 71.7732C62.256 75.58 60.3415 79.1113 57.5067 81.7164C55.7178 83.3589 53.6498 84.5687 51.3595 85.3119C50.7315 85.5157 50.3063 86.1009 50.3063 86.761V90.8581C50.3063 91.7217 49.97 92.5338 49.359 93.1446C48.7482 93.7554 47.9361 94.092 47.0726 94.092C45.2896 94.092 43.8388 92.6413 43.8388 90.8583V87.6265C43.8388 86.8159 43.2039 86.1472 42.3944 86.1051C38.5472 85.9057 35.3612 85.1628 30.46 81.9559C29.4911 81.3222 29.2075 80.0112 29.8287 79.0325C30.1186 78.5747 30.587 78.2554 31.148 78.1331C31.7423 78.0037 32.3694 78.1154 32.8672 78.4396C36.4191 80.7546 38.7788 81.6106 42.2177 81.832C42.6355 81.8598 43.0505 81.7109 43.3574 81.4231C43.6648 81.1351 43.8388 80.7329 43.8388 80.3118V72.067C43.8388 71.2256 43.157 70.5435 42.3154 70.5435C41.4739 70.5435 40.792 71.2256 40.792 72.067V78.6159C38.7211 78.2822 37.0392 77.5221 34.5304 75.8869C33.3543 75.1209 31.8857 74.854 30.4994 75.1561C29.136 75.4531 27.9835 76.2509 27.2549 77.4014C25.7471 79.7778 26.4367 82.9648 28.7917 84.5055C33.6206 87.6651 37.1016 88.6962 40.7918 89.0439V90.8581C40.7918 94.3213 43.6093 97.1387 47.0724 97.1387C48.7498 97.1387 50.3269 96.4854 51.5131 95.299C52.6996 94.1127 53.353 92.5355 53.353 90.8579V87.8352C55.6451 86.9465 57.7314 85.6461 59.5674 83.9601C62.8991 80.8986 65.1485 76.7502 65.9015 72.278C66.5998 68.1139 65.9262 63.8887 64.0037 60.379C63.6659 59.7639 63.2919 59.1714 62.8834 58.6036H90.7652C90.387 69.7515 85.8672 80.1767 77.9415 88.1031Z" fill="black"/>
<path d="M51.0795 80.106C51.3123 80.2374 51.5704 80.303 51.8286 80.303C52.1012 80.303 52.3736 80.2299 52.6151 80.0842C55.7948 78.1675 58.0676 74.7969 58.6946 71.0677C59.0219 69.1212 59.5396 62.5192 52.4622 59.2826C51.9905 59.0667 51.4415 59.1061 51.0053 59.3862C50.569 59.6665 50.3052 60.1493 50.3052 60.6681V78.7796C50.3054 79.3288 50.6011 79.8358 51.0795 80.106ZM53.3523 63.4144C56.0987 65.7924 55.9401 69.0749 55.69 70.5623C55.3805 72.4049 54.5511 74.1312 53.3523 75.5182V63.4144Z" fill="black"/>
<path d="M43.2033 32.6712C42.8052 32.385 42.2935 32.3078 41.8284 32.4644C37.997 33.7532 36.0647 37.2224 35.5339 40.0391C34.9317 43.2349 35.8234 46.2129 37.8611 47.8109C38.8733 48.6049 40.0965 49.3788 41.5998 50.1771C41.8237 50.2957 42.0691 50.3548 42.3142 50.3548C42.5864 50.3548 42.8582 50.2819 43.0993 50.1371C43.5574 49.8616 43.8377 49.366 43.8377 48.8314V33.9082C43.8377 33.4179 43.6016 32.9574 43.2033 32.6712ZM40.7908 46.1672C40.4081 45.9133 40.0579 45.6616 39.7413 45.4136C38.6196 44.5337 38.1433 42.6456 38.528 40.6034C38.7864 39.2315 39.5048 37.6435 40.7908 36.5129V46.1672Z" fill="black"/>
<path d="M88.2088 0C83.0643 0 78.4876 2.47386 75.6027 6.29342C69.27 3.25609 62.469 1.71641 55.3657 1.71641C54.5242 1.71641 53.8423 2.3985 53.8423 3.23984V48.6342C53.8423 49.4756 54.5242 50.1577 55.3657 50.1577H100.762C101.603 50.1577 102.285 49.4756 102.285 48.6342C102.285 41.5358 100.746 34.7372 97.71 28.4048C98.2866 27.9685 98.8391 27.4924 99.3598 26.973C99.9555 26.3788 99.9565 25.4142 99.3624 24.8186C98.7683 24.2231 97.8036 24.2216 97.208 24.816C94.8039 27.2143 91.6081 28.5352 88.2088 28.5352C81.1817 28.5352 75.4647 22.8182 75.4647 15.7911C75.4647 8.76403 81.1819 3.04688 88.2088 3.04688C95.2357 3.04688 100.953 8.76383 100.953 15.7909C100.953 17.327 100.684 18.8256 100.152 20.2455C99.857 21.0334 100.257 21.9113 101.045 22.2064C101.833 22.5016 102.711 22.1018 103.005 21.3139C103.665 19.5512 104 17.693 104 15.7909C104 7.08378 96.916 0 88.2088 0V0ZM56.8892 11.9334C57.9881 12.4505 58.7524 13.5653 58.7524 14.8582V18.0716C58.7524 18.7663 59.2225 19.373 59.8952 19.5467C63.6658 20.5197 66.099 22.3795 66.7568 22.9279C67.1941 23.2915 67.4634 23.8034 67.5154 24.3697C67.5672 24.9362 67.3952 25.4891 67.0308 25.9269C66.2802 26.829 64.9339 26.9525 64.0316 26.2023C63.6384 25.8749 62.5433 25.0374 60.8651 24.333C60.3947 24.1353 59.8568 24.1867 59.4321 24.469C59.0073 24.7514 58.752 25.2277 58.752 25.7378V44.407C58.752 45.0497 59.1552 45.6233 59.7603 45.8406L60.0683 45.9513C60.4073 46.0734 60.7449 46.1947 61.0817 46.3143C61.7447 46.5487 62.3782 46.8171 62.9876 47.111H56.8892V11.9334ZM88.2088 31.5819C90.6347 31.5819 92.9757 31.0359 95.0953 30.0075C97.6289 35.3901 99.013 41.129 99.2129 47.1108H68.5238C66.7076 45.5451 64.5518 44.3095 62.0997 43.4421C61.9998 43.4068 61.8996 43.371 61.7993 43.3351V28.3233C61.9311 28.4204 62.0262 28.497 62.0829 28.5441C64.2776 30.3684 67.5477 30.0686 69.3728 27.8759C70.2578 26.8125 70.6759 25.4684 70.5497 24.0914C70.4234 22.714 69.7681 21.4687 68.7062 20.5861C67.9966 19.9946 65.5427 18.1114 61.7993 16.9248V14.858C61.7993 11.8658 59.6951 9.35695 56.8892 8.72991V4.78867C62.8753 4.98855 68.6168 6.37325 73.9996 8.90784C72.9872 10.9895 72.4179 13.3248 72.4179 15.7909C72.4179 24.4981 79.5016 31.5819 88.2088 31.5819Z" fill="black"/>
<path d="M88.209 25.9605C89.0506 25.9605 89.7324 25.2784 89.7324 24.4371V17.3145H96.855C97.6966 17.3145 98.3785 16.6324 98.3785 15.791C98.3785 14.9497 97.6966 14.2676 96.855 14.2676H89.7324V7.14502C89.7324 6.30368 89.0506 5.62158 88.209 5.62158C87.3675 5.62158 86.6856 6.30368 86.6856 7.14502V14.2676H79.563C78.7214 14.2676 78.0396 14.9497 78.0396 15.791C78.0396 16.6324 78.7214 17.3145 79.563 17.3145H86.6856V24.4371C86.6856 25.2784 87.3677 25.9605 88.209 25.9605Z" fill="black"/>
</g>
<defs>
<clipPath id="clip0_510_108">
<rect width="104" height="104" fill="white"/>
</clipPath>
</defs>
</svg>
