<svg width="45" height="45" viewBox="0 0 45 45" fill="none" xmlns="http://www.w3.org/2000/svg">
<g clip-path="url(#clip0_510_35)">
<path d="M41.4844 11.2501H40.5712C41.3871 10.34 41.9219 9.2132 42.1112 8.00572C42.3004 6.79824 42.136 5.5618 41.6376 4.44578C41.1393 3.32976 40.3285 2.38193 39.3031 1.71681C38.2777 1.0517 37.0816 0.697754 35.8594 0.697754C34.6372 0.697754 33.4411 1.0517 32.4157 1.71681C31.3903 2.38193 30.5794 3.32976 30.0811 4.44578C29.5828 5.5618 29.4183 6.79824 29.6076 8.00572C29.7968 9.2132 30.3317 10.34 31.1476 11.2501H22.5V4.21884C22.5 4.03236 22.4259 3.85352 22.2941 3.72165C22.1622 3.58979 21.9834 3.51571 21.7969 3.51571H18.9844C18.7979 3.51571 18.6191 3.58979 18.4872 3.72165C18.3553 3.85352 18.2812 4.03236 18.2812 4.21884V11.2501H17.5781V1.40634C17.5781 1.21986 17.504 1.04102 17.3722 0.909155C17.2403 0.777293 17.0615 0.703214 16.875 0.703214H14.0625C13.876 0.703214 13.6972 0.777293 13.5653 0.909155C13.4335 1.04102 13.3594 1.21986 13.3594 1.40634V11.2501H12.6562V6.32821C12.6562 6.14173 12.5822 5.96289 12.4503 5.83103C12.3184 5.69917 12.1396 5.62509 11.9531 5.62509H9.14062C8.95414 5.62509 8.7753 5.69917 8.64344 5.83103C8.51158 5.96289 8.4375 6.14173 8.4375 6.32821V11.2501H3.51562C2.76996 11.2509 2.05508 11.5475 1.52781 12.0748C1.00055 12.602 0.703962 13.3169 0.703125 14.0626V35.1563C0.703962 35.902 1.00055 36.6169 1.52781 37.1441C2.05508 37.6714 2.76996 37.968 3.51562 37.9688H18.0088L17.071 40.7813H14.7656C14.5791 40.7813 14.4003 40.8554 14.2684 40.9873C14.1366 41.1191 14.0625 41.298 14.0625 41.4845V42.8907H7.03125C6.84477 42.8907 6.66593 42.9648 6.53407 43.0967C6.4022 43.2285 6.32812 43.4074 6.32812 43.5938C6.32812 43.7803 6.4022 43.9592 6.53407 44.091C6.66593 44.2229 6.84477 44.297 7.03125 44.297H37.9688C38.1552 44.297 38.3341 44.2229 38.4659 44.091C38.5978 43.9592 38.6719 43.7803 38.6719 43.5938C38.6719 43.4074 38.5978 43.2285 38.4659 43.0967C38.3341 42.9648 38.1552 42.8907 37.9688 42.8907H30.9375V41.4845C30.9375 41.298 30.8634 41.1191 30.7316 40.9873C30.5997 40.8554 30.4209 40.7813 30.2344 40.7813H27.929L26.9912 37.9688H41.4844C42.23 37.968 42.9449 37.6714 43.4722 37.1441C43.9995 36.6169 44.296 35.902 44.2969 35.1563V14.0626C44.296 13.3169 43.9995 12.602 43.4722 12.0748C42.9449 11.5475 42.23 11.2509 41.4844 11.2501ZM36.5625 2.16044C37.6133 2.31378 38.5866 2.80225 39.3375 3.55317C40.0885 4.3041 40.5769 5.27737 40.7303 6.32821H36.5625V2.16044ZM36.1503 7.73446H40.7303C40.6088 8.57936 40.2696 9.3781 39.7459 10.0522C39.2223 10.7262 38.5322 11.2524 37.7436 11.579C36.9549 11.9056 36.0949 12.0213 35.248 11.9148C34.4011 11.8082 33.5965 11.4832 32.9133 10.9715L36.1503 7.73446ZM30.9375 7.03134C30.9392 5.84832 31.3663 4.70536 32.1408 3.81112C32.9153 2.91687 33.9856 2.331 35.1562 2.16044V6.74042L31.9192 9.97743C31.281 9.12794 30.9364 8.09388 30.9375 7.03134ZM19.6875 4.92196H21.0938V18.2813H19.6875V4.92196ZM17.5781 12.6563H18.2812V18.2813H17.5781V12.6563ZM14.7656 2.10946H16.1719V18.2813H14.7656V2.10946ZM12.6562 12.6563H13.3594V18.2813H12.6562V12.6563ZM9.84375 7.03134H11.25V18.2813H9.84375V7.03134ZM29.5312 42.1876V42.8907H15.4688V42.1876H29.5312ZM18.5537 40.7813L19.4915 37.9688H25.5085L26.4463 40.7813H18.5537ZM42.8906 35.1563C42.8901 35.5291 42.7418 35.8866 42.4782 36.1502C42.2146 36.4138 41.8572 36.5621 41.4844 36.5626H3.51562C3.14281 36.5621 2.78541 36.4138 2.5218 36.1502C2.25818 35.8866 2.10986 35.5291 2.10938 35.1563V33.7501H42.8906V35.1563ZM42.8906 32.3438H2.10938V14.0626C2.10986 13.6898 2.25818 13.3324 2.5218 13.0688C2.78541 12.8051 3.14281 12.6568 3.51562 12.6563H8.4375V18.2813H7.73438V14.0626C7.73438 13.8761 7.6603 13.6973 7.52843 13.5654C7.39657 13.4335 7.21773 13.3595 7.03125 13.3595H4.21875C4.03227 13.3595 3.85343 13.4335 3.72157 13.5654C3.5897 13.6973 3.51562 13.8761 3.51562 14.0626V18.9845C3.51562 19.1709 3.5897 19.3498 3.72157 19.4816C3.85343 19.6135 4.03227 19.6876 4.21875 19.6876H26.7188C26.9052 19.6876 27.0841 19.6135 27.2159 19.4816C27.3478 19.3498 27.4219 19.1709 27.4219 18.9845V14.0626C27.4219 13.8761 27.3478 13.6973 27.2159 13.5654C27.0841 13.4335 26.9052 13.3595 26.7188 13.3595H23.9062C23.7198 13.3595 23.5409 13.4335 23.4091 13.5654C23.2772 13.6973 23.2031 13.8761 23.2031 14.0626V18.2813H22.5V12.6563H32.966C33.8605 13.1184 34.8526 13.3595 35.8594 13.3595C36.8661 13.3595 37.8583 13.1184 38.7527 12.6563H41.4844C41.8572 12.6568 42.2146 12.8051 42.4782 13.0688C42.7418 13.3324 42.8901 13.6898 42.8906 14.0626V32.3438ZM6.32812 14.7657V18.2813H4.92188V14.7657H6.32812ZM24.6094 18.2813V14.7657H26.0156V18.2813H24.6094Z" fill="#11E09D"/>
<path d="M8.4375 34.4531H4.21875C4.03227 34.4531 3.85343 34.5272 3.72157 34.6591C3.5897 34.7909 3.51562 34.9698 3.51562 35.1562C3.51562 35.3427 3.5897 35.5216 3.72157 35.6534C3.85343 35.7853 4.03227 35.8594 4.21875 35.8594H8.4375C8.62398 35.8594 8.80282 35.7853 8.93468 35.6534C9.06655 35.5216 9.14062 35.3427 9.14062 35.1562C9.14062 34.9698 9.06655 34.7909 8.93468 34.6591C8.80282 34.5272 8.62398 34.4531 8.4375 34.4531Z" fill="#11E09D"/>
<path d="M11.25 34.4531H10.5469C10.3604 34.4531 10.1816 34.5272 10.0497 34.6591C9.91783 34.7909 9.84375 34.9698 9.84375 35.1562C9.84375 35.3427 9.91783 35.5216 10.0497 35.6534C10.1816 35.7853 10.3604 35.8594 10.5469 35.8594H11.25C11.4365 35.8594 11.6153 35.7853 11.7472 35.6534C11.879 35.5216 11.9531 35.3427 11.9531 35.1562C11.9531 34.9698 11.879 34.7909 11.7472 34.6591C11.6153 34.5272 11.4365 34.4531 11.25 34.4531Z" fill="#11E09D"/>
<path d="M30.2344 18.2813C30.3268 18.2814 30.4182 18.2633 30.5036 18.2279C30.5889 18.1926 30.6664 18.1407 30.7316 18.0753L33.3381 15.4688H39.375C39.5615 15.4688 39.7403 15.3947 39.8722 15.2628C40.0041 15.1309 40.0782 14.9521 40.0782 14.7656C40.0782 14.5791 40.0041 14.4003 39.8722 14.2684C39.7403 14.1366 39.5615 14.0625 39.375 14.0625H33.0469C32.9546 14.0625 32.8631 14.0807 32.7778 14.116C32.6925 14.1513 32.615 14.2031 32.5497 14.2684L29.7372 17.0809C29.6389 17.1793 29.5719 17.3045 29.5448 17.4409C29.5176 17.5773 29.5316 17.7187 29.5848 17.8472C29.638 17.9757 29.7281 18.0855 29.8438 18.1628C29.9594 18.24 30.0953 18.2813 30.2344 18.2813Z" fill="#11E09D"/>
<path d="M39.3745 26.0156C39.005 26.0159 38.6421 26.1132 38.322 26.2978C38.002 26.4825 37.736 26.7479 37.5508 27.0677L30.19 22.7733C30.0902 22.2942 29.827 21.8646 29.4453 21.5582C29.0637 21.2518 28.5874 21.0877 28.098 21.0939C27.6086 21.1002 27.1366 21.2764 26.7629 21.5924C26.3891 21.9084 26.1369 22.3445 26.0494 22.8261L18.642 28.3816C18.4405 28.0713 18.1608 27.8195 17.8311 27.6515C17.5014 27.4836 17.1333 27.4054 16.7638 27.4248C16.3943 27.4442 16.0365 27.5606 15.7262 27.7622C15.4159 27.9638 15.1642 28.2435 14.9963 28.5732L7.67502 25.5226C7.5595 25.0409 7.27824 24.6152 6.88048 24.3201C6.48271 24.0249 5.9938 23.8791 5.49934 23.9081C5.00488 23.9371 4.53638 24.1391 4.17586 24.4788C3.81535 24.8184 3.58581 25.2741 3.52741 25.7659C3.46902 26.2578 3.58551 26.7545 3.85647 27.1691C4.12744 27.5838 4.53562 27.8899 5.00954 28.0338C5.48347 28.1778 5.99294 28.1505 6.44875 27.9567C6.90457 27.7628 7.27767 27.4148 7.50275 26.9736L14.824 30.0243C14.9371 30.4947 15.2084 30.912 15.5926 31.2061C15.9767 31.5002 16.4503 31.6533 16.9339 31.6397C17.4175 31.6261 17.8817 31.4466 18.2487 31.1314C18.6157 30.8162 18.8632 30.3843 18.9496 29.9083L26.357 24.3527C26.5533 24.655 26.8238 24.9019 27.1427 25.0699C27.4616 25.2378 27.8182 25.3211 28.1785 25.3118C28.5388 25.3026 28.8907 25.2011 29.2005 25.017C29.5104 24.8329 29.7678 24.5724 29.9483 24.2604L37.3091 28.5548C37.3903 28.9452 37.5806 29.3046 37.8578 29.5912C38.135 29.8779 38.4877 30.0801 38.8752 30.1745C39.2626 30.2688 39.6689 30.2514 40.0468 30.1243C40.4248 29.9971 40.759 29.7654 41.0106 29.4561C41.2622 29.1467 41.421 28.7724 41.4686 28.3765C41.5161 27.9805 41.4504 27.5792 41.2792 27.2191C41.1079 26.859 40.8381 26.5548 40.501 26.3418C40.1639 26.1288 39.7733 26.0157 39.3745 26.0156ZM6.32765 26.0191C6.32719 26.2059 6.2526 26.3849 6.12027 26.5167C5.98794 26.6486 5.80869 26.7225 5.62189 26.7223C5.4351 26.722 5.25603 26.6477 5.12403 26.5155C4.99203 26.3833 4.91789 26.2042 4.91789 26.0174C4.91789 25.8306 4.99203 25.6514 5.12403 25.5193C5.25603 25.3871 5.4351 25.3127 5.62189 25.3125C5.80869 25.3123 5.98794 25.3862 6.12027 25.518C6.2526 25.6499 6.32719 25.8288 6.32765 26.0156V26.0191ZM16.8745 30.2344C16.6881 30.2341 16.5094 30.16 16.3776 30.0281C16.2458 29.8963 16.1717 29.7176 16.1714 29.5312V29.5277C16.1721 29.3888 16.2139 29.2532 16.2916 29.1381C16.3693 29.0229 16.4793 28.9333 16.6079 28.8806C16.7364 28.828 16.8777 28.8145 17.0138 28.8421C17.15 28.8696 17.275 28.9368 17.3729 29.0353C17.4709 29.1338 17.5375 29.2591 17.5644 29.3954C17.5912 29.5317 17.5771 29.6729 17.5238 29.8011C17.4705 29.9294 17.3803 30.039 17.2648 30.1161C17.1492 30.1932 17.0134 30.2344 16.8745 30.2344ZM28.1245 23.9062C27.9855 23.9062 27.8495 23.865 27.7339 23.7877C27.6183 23.7105 27.5281 23.6007 27.4749 23.4722C27.4217 23.3437 27.4078 23.2023 27.4349 23.0659C27.462 22.9296 27.529 22.8043 27.6273 22.7059C27.7257 22.6076 27.851 22.5406 27.9874 22.5135C28.1237 22.4864 28.2651 22.5003 28.3936 22.5535C28.5221 22.6067 28.6319 22.6969 28.7092 22.8125C28.7864 22.9281 28.8277 23.0641 28.8277 23.2031C28.8274 23.3895 28.7532 23.5682 28.6214 23.7C28.4896 23.8318 28.3109 23.906 28.1245 23.9062ZM39.3745 28.8281C39.2355 28.8281 39.0995 28.7869 38.9839 28.7096C38.8683 28.6324 38.7781 28.5225 38.7249 28.3941C38.6717 28.2656 38.6578 28.1242 38.6849 27.9878C38.712 27.8514 38.779 27.7261 38.8773 27.6278C38.9757 27.5295 39.101 27.4625 39.2374 27.4354C39.3737 27.4083 39.5151 27.4222 39.6436 27.4754C39.7721 27.5286 39.8819 27.6187 39.9592 27.7344C40.0364 27.85 40.0777 27.9859 40.0777 28.125C40.0774 28.3114 40.0032 28.4901 39.8714 28.6219C39.7396 28.7537 39.5609 28.8279 39.3745 28.8281Z" fill="#11E09D"/>
<path d="M33.75 30.2344H28.8281C28.6416 30.2344 28.4628 30.3085 28.3309 30.4403C28.1991 30.5722 28.125 30.751 28.125 30.9375C28.125 31.124 28.1991 31.3028 28.3309 31.4347C28.4628 31.5665 28.6416 31.6406 28.8281 31.6406H33.75C33.9365 31.6406 34.1153 31.5665 34.2472 31.4347C34.379 31.3028 34.4531 31.124 34.4531 30.9375C34.4531 30.751 34.379 30.5722 34.2472 30.4403C34.1153 30.3085 33.9365 30.2344 33.75 30.2344Z" fill="#11E09D"/>
<path d="M33.75 28.125H31.6406C31.4541 28.125 31.2753 28.1991 31.1434 28.3309C31.0116 28.4628 30.9375 28.6416 30.9375 28.8281C30.9375 29.0146 31.0116 29.1934 31.1434 29.3253C31.2753 29.4572 31.4541 29.5312 31.6406 29.5312H33.75C33.9365 29.5312 34.1153 29.4572 34.2472 29.3253C34.379 29.1934 34.4531 29.0146 34.4531 28.8281C34.4531 28.6416 34.379 28.4628 34.2472 28.3309C34.1153 28.1991 33.9365 28.125 33.75 28.125Z" fill="#11E09D"/>
<path d="M4.21875 21.7969H11.9531C12.1396 21.7969 12.3184 21.7228 12.4503 21.5909C12.5822 21.4591 12.6562 21.2802 12.6562 21.0938C12.6562 20.9073 12.5822 20.7284 12.4503 20.5966C12.3184 20.4647 12.1396 20.3906 11.9531 20.3906H4.21875C4.03227 20.3906 3.85343 20.4647 3.72157 20.5966C3.5897 20.7284 3.51562 20.9073 3.51562 21.0938C3.51562 21.2802 3.5897 21.4591 3.72157 21.5909C3.85343 21.7228 4.03227 21.7969 4.21875 21.7969Z" fill="#11E09D"/>
<path d="M14.0625 21.7969H14.7656C14.9521 21.7969 15.1309 21.7228 15.2628 21.5909C15.3947 21.4591 15.4688 21.2802 15.4688 21.0938C15.4688 20.9073 15.3947 20.7284 15.2628 20.5966C15.1309 20.4647 14.9521 20.3906 14.7656 20.3906H14.0625C13.876 20.3906 13.6972 20.4647 13.5653 20.5966C13.4335 20.7284 13.3594 20.9073 13.3594 21.0938C13.3594 21.2802 13.4335 21.4591 13.5653 21.5909C13.6972 21.7228 13.876 21.7969 14.0625 21.7969Z" fill="#11E09D"/>
</g>
<defs>
<clipPath id="clip0_510_35">
<rect width="45" height="45" fill="white"/>
</clipPath>
</defs>
</svg>
