<svg width="104" height="104" viewBox="0 0 104 104" fill="none" xmlns="http://www.w3.org/2000/svg">
<path d="M95.875 25.9999H93.7645C95.6501 23.8967 96.8862 21.2925 97.3236 18.5018C97.761 15.7112 97.3809 12.8536 96.2292 10.2744C95.0775 7.69516 93.2036 5.50462 90.8337 3.96746C88.4639 2.4303 85.6997 1.6123 82.875 1.6123C80.0503 1.6123 77.2861 2.4303 74.9163 3.96746C72.5464 5.50462 70.6725 7.69516 69.5208 10.2744C68.3691 12.8536 67.989 15.7112 68.4264 18.5018C68.8638 21.2925 70.0999 23.8967 71.9855 25.9999H52V9.74992C52 9.31895 51.8288 8.90562 51.524 8.60088C51.2193 8.29613 50.806 8.12492 50.375 8.12492H43.875C43.444 8.12492 43.0307 8.29613 42.726 8.60088C42.4212 8.90562 42.25 9.31895 42.25 9.74992V25.9999H40.625V3.24992C40.625 2.81895 40.4538 2.40562 40.149 2.10088C39.8443 1.79613 39.431 1.62492 39 1.62492H32.5C32.069 1.62492 31.6557 1.79613 31.351 2.10088C31.0462 2.40562 30.875 2.81895 30.875 3.24992V25.9999H29.25V14.6249C29.25 14.1939 29.0788 13.7806 28.774 13.4759C28.4693 13.1711 28.056 12.9999 27.625 12.9999H21.125C20.694 12.9999 20.2807 13.1711 19.976 13.4759C19.6712 13.7806 19.5 14.1939 19.5 14.6249V25.9999H8.125C6.40169 26.0019 4.74951 26.6873 3.53094 27.9059C2.31238 29.1244 1.62694 30.7766 1.625 32.4999V81.2499C1.62694 82.9732 2.31238 84.6254 3.53094 85.844C4.74951 87.0625 6.40169 87.748 8.125 87.7499H41.6203L39.453 94.2499H34.125C33.694 94.2499 33.2807 94.4211 32.976 94.7259C32.6712 95.0306 32.5 95.4439 32.5 95.8749V99.1249H16.25C15.819 99.1249 15.4057 99.2961 15.101 99.6009C14.7962 99.9056 14.625 100.319 14.625 100.75C14.625 101.181 14.7962 101.594 15.101 101.899C15.4057 102.204 15.819 102.375 16.25 102.375H87.75C88.181 102.375 88.5943 102.204 88.899 101.899C89.2038 101.594 89.375 101.181 89.375 100.75C89.375 100.319 89.2038 99.9056 88.899 99.6009C88.5943 99.2961 88.181 99.1249 87.75 99.1249H71.5V95.8749C71.5 95.4439 71.3288 95.0306 71.024 94.7259C70.7193 94.4211 70.306 94.2499 69.875 94.2499H64.547L62.3797 87.7499H95.875C97.5983 87.748 99.2505 87.0625 100.469 85.844C101.688 84.6254 102.373 82.9732 102.375 81.2499V32.4999C102.373 30.7766 101.688 29.1244 100.469 27.9059C99.2505 26.6873 97.5983 26.0019 95.875 25.9999ZM84.5 4.99274C86.9286 5.34713 89.1779 6.47602 90.9134 8.2115C92.6489 9.94698 93.7778 12.1963 94.1322 14.6249H84.5V4.99274ZM83.5473 17.8749H94.1322C93.8515 19.8276 93.0675 21.6735 91.8573 23.2314C90.647 24.7892 89.0522 26.0053 87.2296 26.7601C85.407 27.5148 83.4193 27.7822 81.462 27.5361C79.5047 27.2899 77.6452 26.5386 76.0663 25.356L83.5473 17.8749ZM71.5 16.2499C71.5039 13.5158 72.4909 10.8743 74.2809 8.80763C76.0709 6.74094 78.5445 5.38691 81.25 4.99274V15.5776L73.7689 23.0587C72.2938 21.0954 71.4975 18.7056 71.5 16.2499ZM45.5 11.3749H48.75V42.2499H45.5V11.3749ZM40.625 29.2499H42.25V42.2499H40.625V29.2499ZM34.125 4.87492H37.375V42.2499H34.125V4.87492ZM29.25 29.2499H30.875V42.2499H29.25V29.2499ZM22.75 16.2499H26V42.2499H22.75V16.2499ZM68.25 97.4999V99.1249H35.75V97.4999H68.25ZM42.8797 94.2499L45.047 87.7499H58.953L61.1203 94.2499H42.8797ZM99.125 81.2499C99.1239 82.1115 98.7811 82.9375 98.1719 83.5468C97.5626 84.156 96.7366 84.4988 95.875 84.4999H8.125C7.26339 84.4988 6.4374 84.156 5.82815 83.5468C5.2189 82.9375 4.87613 82.1115 4.875 81.2499V77.9999H99.125V81.2499ZM99.125 74.7499H4.875V32.4999C4.87613 31.6383 5.2189 30.8123 5.82815 30.2031C6.4374 29.5938 7.26339 29.2511 8.125 29.2499H19.5V42.2499H17.875V32.4999C17.875 32.0689 17.7038 31.6556 17.399 31.3509C17.0943 31.0461 16.681 30.8749 16.25 30.8749H9.75C9.31902 30.8749 8.9057 31.0461 8.60095 31.3509C8.29621 31.6556 8.125 32.0689 8.125 32.4999V43.8749C8.125 44.3059 8.29621 44.7192 8.60095 45.024C8.9057 45.3287 9.31902 45.4999 9.75 45.4999H61.75C62.181 45.4999 62.5943 45.3287 62.899 45.024C63.2038 44.7192 63.375 44.3059 63.375 43.8749V32.4999C63.375 32.0689 63.2038 31.6556 62.899 31.3509C62.5943 31.0461 62.181 30.8749 61.75 30.8749H55.25C54.819 30.8749 54.4057 31.0461 54.101 31.3509C53.7962 31.6556 53.625 32.0689 53.625 32.4999V42.2499H52V29.2499H76.1881C78.2554 30.3177 80.5483 30.8749 82.875 30.8749C85.2017 30.8749 87.4946 30.3177 89.5619 29.2499H95.875C96.7366 29.2511 97.5626 29.5938 98.1719 30.2031C98.7811 30.8123 99.1239 31.6383 99.125 32.4999V74.7499ZM14.625 34.1249V42.2499H11.375V34.1249H14.625ZM56.875 42.2499V34.1249H60.125V42.2499H56.875Z" fill="#11E09D"/>
<path d="M19.5 79.625H9.75C9.31902 79.625 8.9057 79.7962 8.60095 80.101C8.29621 80.4057 8.125 80.819 8.125 81.25C8.125 81.681 8.29621 82.0943 8.60095 82.399C8.9057 82.7038 9.31902 82.875 9.75 82.875H19.5C19.931 82.875 20.3443 82.7038 20.649 82.399C20.9538 82.0943 21.125 81.681 21.125 81.25C21.125 80.819 20.9538 80.4057 20.649 80.101C20.3443 79.7962 19.931 79.625 19.5 79.625Z" fill="#11E09D"/>
<path d="M26 79.625H24.375C23.944 79.625 23.5307 79.7962 23.226 80.101C22.9212 80.4057 22.75 80.819 22.75 81.25C22.75 81.681 22.9212 82.0943 23.226 82.399C23.5307 82.7038 23.944 82.875 24.375 82.875H26C26.431 82.875 26.8443 82.7038 27.149 82.399C27.4538 82.0943 27.625 81.681 27.625 81.25C27.625 80.819 27.4538 80.4057 27.149 80.101C26.8443 79.7962 26.431 79.625 26 79.625Z" fill="#11E09D"/>
<path d="M69.8751 42.25C70.0885 42.2503 70.2999 42.2084 70.4971 42.1267C70.6943 42.0451 70.8734 41.9252 71.0241 41.7741L77.048 35.75H91.0001C91.431 35.75 91.8444 35.5788 92.1491 35.274C92.4539 34.9693 92.6251 34.556 92.6251 34.125C92.6251 33.694 92.4539 33.2807 92.1491 32.976C91.8444 32.6712 91.431 32.5 91.0001 32.5H76.3751C76.1617 32.5 75.9503 32.542 75.7532 32.6237C75.556 32.7053 75.3769 32.825 75.226 32.9759L68.726 39.4759C68.4987 39.7032 68.3439 39.9927 68.2812 40.308C68.2185 40.6232 68.2507 40.9499 68.3737 41.2469C68.4967 41.5438 68.705 41.7976 68.9722 41.9762C69.2395 42.1547 69.5537 42.25 69.8751 42.25Z" fill="#11E09D"/>
<path d="M91.0001 60.125C90.1461 60.1256 89.3073 60.3505 88.5676 60.7772C87.8279 61.2039 87.2133 61.8175 86.7852 62.5564L69.7735 52.6317C69.543 51.5243 68.9347 50.5315 68.0526 49.8234C67.1705 49.1153 66.0697 48.736 64.9387 48.7504C63.8077 48.7648 62.7168 49.1721 61.8531 49.9024C60.9894 50.6327 60.4065 51.6407 60.2043 52.7536L43.0849 65.5931C42.6192 64.8759 41.9729 64.294 41.2109 63.9058C40.4489 63.5176 39.5982 63.3369 38.7442 63.3817C37.8903 63.4266 37.0632 63.6955 36.3461 64.1615C35.629 64.6274 35.0473 65.2739 34.6593 66.0359L17.739 58.9855C17.472 57.8723 16.822 56.8885 15.9027 56.2064C14.9834 55.5242 13.8535 55.1872 12.7107 55.2542C11.568 55.3213 10.4852 55.7882 9.65204 56.5731C8.81886 57.3581 8.28835 58.4112 8.1534 59.5479C8.01845 60.6847 8.28766 61.8327 8.91389 62.7909C9.54013 63.7491 10.4835 64.4566 11.5788 64.7893C12.6741 65.1221 13.8515 65.0589 14.9049 64.611C15.9584 64.163 16.8207 63.3588 17.3408 62.3391L34.2612 69.3895C34.5224 70.4767 35.1495 71.441 36.0373 72.1207C36.9251 72.8005 38.0196 73.1543 39.1373 73.1228C40.2549 73.0914 41.3278 72.6766 42.176 71.9481C43.0242 71.2196 43.5961 70.2215 43.7958 69.1214L60.9152 56.2819C61.3687 56.9805 61.9939 57.5512 62.7309 57.9392C63.4679 58.3273 64.2921 58.5199 65.1248 58.4985C65.9574 58.4771 66.7707 58.2424 67.4868 57.817C68.2029 57.3916 68.7979 56.7896 69.2149 56.0686L86.2266 65.9933C86.4144 66.8955 86.8541 67.7261 87.4947 68.3886C88.1353 69.0512 88.9506 69.5186 89.846 69.7366C90.7415 69.9546 91.6804 69.9144 92.5539 69.6205C93.4273 69.3266 94.1996 68.7912 94.7812 68.0762C95.3627 67.3613 95.7297 66.4962 95.8396 65.5811C95.9495 64.6661 95.7977 63.7387 95.4019 62.9064C95.0061 62.0741 94.3825 61.3711 93.6034 60.8788C92.8243 60.3865 91.9217 60.1251 91.0001 60.125ZM14.6251 60.1331C14.624 60.5648 14.4516 60.9784 14.1458 61.2831C13.8399 61.5878 13.4257 61.7587 12.994 61.7581C12.5623 61.7576 12.1484 61.5857 11.8434 61.2803C11.5383 60.9748 11.3669 60.5608 11.3669 60.1291C11.3669 59.6973 11.5383 59.2833 11.8434 58.9778C12.1484 58.6724 12.5623 58.5005 12.994 58.5C13.4257 58.4995 13.8399 58.6703 14.1458 58.975C14.4516 59.2797 14.624 59.6933 14.6251 60.125V60.1331ZM39.0001 69.875C38.5693 69.8744 38.1563 69.703 37.8517 69.3984C37.547 69.0938 37.3757 68.6808 37.3751 68.25V68.2419C37.3767 67.9208 37.4733 67.6074 37.6529 67.3413C37.8324 67.0751 38.0867 66.8681 38.3838 66.7464C38.6809 66.6246 39.0074 66.5936 39.322 66.6572C39.6367 66.7208 39.9255 66.8762 40.152 67.1038C40.3784 67.3314 40.5324 67.6209 40.5944 67.9359C40.6565 68.2509 40.6238 68.5773 40.5006 68.8737C40.3773 69.1702 40.1691 69.4235 39.902 69.6017C39.635 69.7799 39.3211 69.875 39.0001 69.875ZM65.0001 55.25C64.6787 55.25 64.3645 55.1547 64.0973 54.9761C63.83 54.7976 63.6218 54.5438 63.4988 54.2468C63.3758 53.9499 63.3436 53.6232 63.4063 53.308C63.469 52.9927 63.6238 52.7032 63.851 52.4759C64.0783 52.2487 64.3678 52.0939 64.683 52.0312C64.9983 51.9685 65.325 52.0007 65.6219 52.1237C65.9189 52.2467 66.1726 52.455 66.3512 52.7222C66.5298 52.9894 66.6251 53.3036 66.6251 53.625C66.6245 54.0558 66.4531 54.4688 66.1485 54.7734C65.8438 55.078 65.4309 55.2494 65.0001 55.25ZM91.0001 66.625C90.6787 66.625 90.3645 66.5297 90.0973 66.3511C89.83 66.1726 89.6218 65.9188 89.4988 65.6218C89.3758 65.3249 89.3436 64.9982 89.4063 64.683C89.469 64.3677 89.6238 64.0782 89.851 63.8509C90.0783 63.6237 90.3678 63.4689 90.683 63.4062C90.9983 63.3435 91.325 63.3757 91.6219 63.4987C91.9189 63.6217 92.1726 63.83 92.3512 64.0972C92.5298 64.3644 92.6251 64.6786 92.6251 65C92.6245 65.4308 92.4531 65.8438 92.1485 66.1484C91.8438 66.453 91.4309 66.6244 91.0001 66.625Z" fill="#11E09D"/>
<path d="M78 69.875H66.625C66.194 69.875 65.7807 70.0462 65.476 70.351C65.1712 70.6557 65 71.069 65 71.5C65 71.931 65.1712 72.3443 65.476 72.649C65.7807 72.9538 66.194 73.125 66.625 73.125H78C78.431 73.125 78.8443 72.9538 79.149 72.649C79.4538 72.3443 79.625 71.931 79.625 71.5C79.625 71.069 79.4538 70.6557 79.149 70.351C78.8443 70.0462 78.431 69.875 78 69.875Z" fill="#11E09D"/>
<path d="M78 65H73.125C72.694 65 72.2807 65.1712 71.976 65.476C71.6712 65.7807 71.5 66.194 71.5 66.625C71.5 67.056 71.6712 67.4693 71.976 67.774C72.2807 68.0788 72.694 68.25 73.125 68.25H78C78.431 68.25 78.8443 68.0788 79.149 67.774C79.4538 67.4693 79.625 67.056 79.625 66.625C79.625 66.194 79.4538 65.7807 79.149 65.476C78.8443 65.1712 78.431 65 78 65Z" fill="#11E09D"/>
<path d="M9.75 50.375H27.625C28.056 50.375 28.4693 50.2038 28.774 49.899C29.0788 49.5943 29.25 49.181 29.25 48.75C29.25 48.319 29.0788 47.9057 28.774 47.601C28.4693 47.2962 28.056 47.125 27.625 47.125H9.75C9.31902 47.125 8.9057 47.2962 8.60095 47.601C8.29621 47.9057 8.125 48.319 8.125 48.75C8.125 49.181 8.29621 49.5943 8.60095 49.899C8.9057 50.2038 9.31902 50.375 9.75 50.375Z" fill="#11E09D"/>
<path d="M32.5 50.375H34.125C34.556 50.375 34.9693 50.2038 35.274 49.899C35.5788 49.5943 35.75 49.181 35.75 48.75C35.75 48.319 35.5788 47.9057 35.274 47.601C34.9693 47.2962 34.556 47.125 34.125 47.125H32.5C32.069 47.125 31.6557 47.2962 31.351 47.601C31.0462 47.9057 30.875 48.319 30.875 48.75C30.875 49.181 31.0462 49.5943 31.351 49.899C31.6557 50.2038 32.069 50.375 32.5 50.375Z" fill="#11E09D"/>
</svg>
