<svg width="41" height="45" viewBox="0 0 41 45" fill="none" xmlns="http://www.w3.org/2000/svg">
<path d="M39.5031 10.7675L21.1593 0.17666C20.7514 -0.0588867 20.2488 -0.0588867 19.8409 0.17666L1.49707 10.7675C1.08917 11.0029 0.837891 11.4382 0.837891 11.9092V33.0908C0.837891 33.5618 1.08917 33.9971 1.49707 34.2325L19.8409 44.8233C20.2488 45.0589 20.7514 45.0589 21.1593 44.8233L39.5031 34.2325C39.911 33.9971 40.1623 33.5618 40.1623 33.0908V11.9092C40.1623 11.4382 39.9111 11.0029 39.5031 10.7675ZM15.5577 26.7363C15.5577 27.4644 14.9675 28.0547 14.2394 28.0547H12.8272C12.295 28.0547 11.815 27.7347 11.6103 27.2434L9.20323 21.4664V26.7363C9.13837 28.4837 6.63076 28.4824 6.56651 26.7363V18.2637C6.56651 17.5356 7.15679 16.9453 7.88487 16.9453H9.29701C9.82928 16.9453 10.3092 17.2653 10.5139 17.7566L12.921 23.5337V18.2637C12.9859 16.5163 15.4935 16.5176 15.5577 18.2637V26.7363ZM24.7364 19.582H20.5001V21.8877H23.3243C25.0716 21.9525 25.0703 24.4601 23.3243 24.5244H20.5001V26.7363C20.4352 28.4837 17.9276 28.4824 17.8634 26.7363V18.2637C17.8634 17.5356 18.4536 16.9453 19.1817 16.9453H24.7364C26.4838 17.0102 26.4824 19.5178 24.7364 19.582ZM33.9151 19.582H32.4093V26.7363C32.3444 28.4837 29.8368 28.4824 29.7725 26.7363V19.582H28.2667C26.5194 19.5172 26.5207 17.0096 28.2667 16.9453H33.9152C35.6624 17.0102 35.6611 19.5178 33.9151 19.582Z" fill="#11E09D"/>
</svg>
