<svg width="104" height="104" viewBox="0 0 104 104" fill="none" xmlns="http://www.w3.org/2000/svg">
<g clip-path="url(#clip0_510_95)">
<path d="M95.9182 24.8848L53.5235 0.408281C52.5808 -0.136094 51.4194 -0.136094 50.4767 0.408281L8.08203 24.8848C7.13933 25.429 6.55859 26.4349 6.55859 27.5234V76.4766C6.55859 77.5651 7.13933 78.571 8.08203 79.1152L50.4767 103.592C51.4194 104.136 52.5808 104.136 53.5235 103.592L95.9182 79.1152C96.8609 78.571 97.4416 77.5651 97.4416 76.4766V27.5234C97.4416 26.4349 96.8611 25.429 95.9182 24.8848ZM40.5778 61.7906C40.5778 63.4733 39.2136 64.8375 37.5309 64.8375H34.2673C33.0372 64.8375 31.9279 64.0979 31.4548 62.9625L25.8918 49.6113V61.7906C25.7419 65.829 19.9466 65.8259 19.7981 61.7906V42.2094C19.7981 40.5267 21.1623 39.1625 22.845 39.1625H26.1086C27.3387 39.1625 28.448 39.9021 28.921 41.0375L34.484 54.389V42.2094C34.6339 38.171 40.4293 38.1741 40.5778 42.2094V61.7906ZM61.7907 45.2563H52.0001V50.5848H58.5271C62.5654 50.7347 62.5624 56.5301 58.5271 56.6786H52.0001V61.7906C51.8502 65.829 46.0548 65.8259 45.9063 61.7906V42.2094C45.9063 40.5267 47.2705 39.1625 48.9532 39.1625H61.7907C65.8291 39.3124 65.826 45.1078 61.7907 45.2563ZM83.0037 45.2563H79.5235V61.7906C79.3736 65.829 73.5783 65.8259 73.4298 61.7906V45.2563H69.9496C65.9113 45.1063 65.9144 39.311 69.9496 39.1625H83.0039C87.042 39.3124 87.039 45.1078 83.0037 45.2563Z" fill="#11E09D"/>
</g>
<defs>
<clipPath id="clip0_510_95">
<rect width="104" height="104" fill="white"/>
</clipPath>
</defs>
</svg>
