<svg width="25" height="25" viewBox="0 0 25 25" fill="none" xmlns="http://www.w3.org/2000/svg">
<g clip-path="url(#clip0_350_61)">
<path d="M18.374 14.3651C19.4773 12.3003 19.8019 9.90784 19.2887 7.62372C18.7756 5.3396 17.4589 3.31588 15.5785 1.92136C13.6981 0.526832 11.3793 -0.145661 9.04457 0.0264299C6.70985 0.198521 4.51468 1.20374 2.8591 2.8589C1.20602 4.51505 0.202604 6.70974 0.0315193 9.04346C-0.139565 11.3772 0.533055 13.6947 1.92694 15.5743C3.32082 17.4538 5.34328 18.7703 7.62615 19.2841C9.90902 19.798 12.3005 19.4749 14.3653 18.3739L20.1635 24.1722C20.6966 24.697 21.4154 24.9899 22.1634 24.987C22.9114 24.9841 23.6279 24.6857 24.1569 24.1568C24.6858 23.6279 24.9843 22.9113 24.9872 22.1633C24.9902 21.4153 24.6973 20.6965 24.1726 20.1634L18.374 14.3651ZM3.68771 15.8348C2.88418 15.0385 2.24585 14.0914 1.80939 13.0477C1.37293 12.004 1.14693 10.8844 1.14436 9.75314C1.1418 8.62188 1.36273 7.50126 1.79446 6.45562C2.2262 5.40998 2.86023 4.45992 3.66015 3.66C4.46007 2.86007 5.41013 2.22604 6.45577 1.79431C7.50141 1.36258 8.62203 1.14165 9.75329 1.14421C10.8846 1.14677 12.0042 1.37277 13.0478 1.80924C14.0915 2.2457 15.0387 2.88403 15.835 3.68756C16.6385 4.48385 17.2768 5.43103 17.7133 6.47471C18.1498 7.51838 18.3758 8.63799 18.3783 9.76925C18.3809 10.9005 18.16 12.0211 17.7282 13.0668C17.2965 14.1124 16.6625 15.0625 15.8625 15.8624C15.0626 16.6623 14.1126 17.2963 13.0669 17.7281C12.0213 18.1598 10.9007 18.3807 9.7694 18.3782C8.63814 18.3756 7.51853 18.1496 6.47486 17.7132C5.43118 17.2767 4.48401 16.6384 3.68771 15.8348ZM23.3438 23.3436C23.0317 23.655 22.6088 23.8299 22.1679 23.8299C21.7271 23.8299 21.3042 23.655 20.9921 23.3436L15.3886 17.7401C16.2993 17.0942 17.0944 16.2991 17.7403 15.3885L23.3438 20.992C23.6541 21.3047 23.8282 21.7273 23.8282 22.1678C23.8282 22.6083 23.6541 23.0309 23.3438 23.3436H23.3438ZM14.4622 5.39811C12.2991 5.5608 10.933 5.00221 10.2871 3.6902C10.2388 3.592 10.1639 3.50929 10.071 3.45146C9.9781 3.39362 9.87084 3.36297 9.76139 3.36297C9.65195 3.36297 9.54469 3.39362 9.45177 3.45146C9.35885 3.50929 9.28399 3.592 9.23566 3.6902C8.58991 5.00221 7.22429 5.56105 5.06086 5.39811C4.91494 5.38712 4.77019 5.43109 4.65504 5.52137C4.53988 5.61165 4.46265 5.74173 4.43849 5.88605C4.05676 8.17609 4.41374 10.4015 5.47096 12.3212C6.41823 14.0415 7.8592 15.3876 9.52814 16.1111C9.6017 16.1431 9.68104 16.1595 9.76122 16.1595C9.84141 16.1595 9.92074 16.1431 9.9943 16.1111C11.6632 15.3875 13.1041 14.0415 14.0515 12.3212C15.1087 10.4015 15.4657 8.17623 15.084 5.88605C15.0601 5.74171 14.983 5.61154 14.8679 5.52121C14.7529 5.43089 14.6081 5.38697 14.4622 5.39811ZM9.76139 14.9294C7.30441 13.7428 5.04948 10.7155 5.52209 6.5944C7.44401 6.63995 8.86506 6.11427 9.76139 5.02765C10.6222 6.07116 11.9658 6.59718 13.7737 6.59713C13.8486 6.59713 13.9243 6.59622 14.0008 6.5944C14.4733 10.7155 12.2184 13.7424 9.76139 14.9292V14.9294ZM12.2562 8.65172L9.94811 11.5941C9.89871 11.6571 9.83691 11.7093 9.76652 11.7476C9.69614 11.7858 9.61866 11.8092 9.53889 11.8163C9.5216 11.8178 9.50432 11.8186 9.48713 11.8186C9.34321 11.8186 9.20432 11.7656 9.09694 11.6698L7.33747 10.0993C7.22428 9.99512 7.15662 9.85057 7.1491 9.6969C7.14158 9.54323 7.1948 9.39277 7.29728 9.27801C7.39975 9.16325 7.54325 9.09339 7.69678 9.08353C7.85032 9.07367 8.00158 9.12459 8.11789 9.22531L9.41144 10.3799L11.3341 7.92877C11.4303 7.80713 11.5707 7.72855 11.7246 7.71023C11.8786 7.69191 12.0335 7.73536 12.1555 7.83105C12.2775 7.92674 12.3566 8.06688 12.3755 8.22076C12.3943 8.37465 12.3514 8.52974 12.2562 8.65206V8.65172Z" fill="#11E09D"/>
</g>
<defs>
<clipPath id="clip0_350_61">
<rect width="25" height="25" fill="white"/>
</clipPath>
</defs>
</svg>
