<svg width="25" height="25" viewBox="0 0 25 25" fill="none" xmlns="http://www.w3.org/2000/svg">
<g clip-path="url(#clip0_350_47)">
<path fill-rule="evenodd" clip-rule="evenodd" d="M5.61289 19.6108C5.55556 19.6111 5.49853 19.6185 5.44305 19.6328C5.26692 19.6786 5.11667 19.7934 5.02624 19.9514L4.8357 20.2768C4.6433 20.6095 4.75142 21.035 5.07927 21.2355C5.23386 21.3281 5.41922 21.3545 5.5935 21.3088C5.76968 21.2626 5.91989 21.1475 6.01032 20.9894L6.20086 20.6644C6.26238 20.5568 6.29451 20.4349 6.29398 20.3109C6.2972 20.0644 6.16936 19.8347 5.95817 19.7074C5.85392 19.6446 5.73457 19.6112 5.61289 19.6108Z" fill="#11E09D"/>
<path fill-rule="evenodd" clip-rule="evenodd" d="M22.3224 12.2861C22.2252 12.2865 22.1328 12.3282 22.0682 12.4007C22.0035 12.4732 21.9728 12.5698 21.9836 12.6663L22.7077 19.1826L24.5699 19.1796V12.2827L22.3224 12.2861Z" fill="#11E09D"/>
<path fill-rule="evenodd" clip-rule="evenodd" d="M2.93382 12.4C2.86922 12.3272 2.77639 12.2857 2.67907 12.2862L0.430664 12.2827V19.1796L2.29497 19.1826L3.01913 12.6663C3.03051 12.5694 2.9994 12.4723 2.93382 12.4Z" fill="#11E09D"/>
<path fill-rule="evenodd" clip-rule="evenodd" d="M9.28078 21.9219C9.10948 21.9657 8.9627 22.076 8.87299 22.2283C8.87041 22.2335 8.86826 22.2391 8.86523 22.2439L8.67469 22.5702L8.67123 22.5749C8.48196 22.9072 8.59261 23.3297 8.92036 23.5267C9.07427 23.6185 9.25851 23.6449 9.43201 23.6C9.6055 23.555 9.75375 23.4424 9.8437 23.2874L10.0394 22.9512C10.2314 22.6184 10.1213 22.1931 9.79199 21.9951C9.63856 21.9025 9.45408 21.8761 9.28078 21.9219Z" fill="#11E09D"/>
<path fill-rule="evenodd" clip-rule="evenodd" d="M7.53242 20.7568C7.4751 20.7571 7.41806 20.7645 7.36259 20.7788C7.1868 20.8245 7.03674 20.939 6.94621 21.0965L6.75524 21.4228C6.56279 21.7554 6.67066 22.1808 6.99836 22.3815C7.15291 22.4735 7.33779 22.4999 7.51192 22.4549C7.68605 22.4099 7.83498 22.2972 7.92556 22.1418L7.92815 22.1366L8.12342 21.8004V21.7978C8.30551 21.4671 8.19657 21.0517 7.87556 20.8529C7.77189 20.7907 7.65338 20.7575 7.53242 20.7568Z" fill="#11E09D"/>
<path fill-rule="evenodd" clip-rule="evenodd" d="M9.76368 11.7599L7.45194 12.9186C7.15382 13.0679 6.82495 13.1454 6.49153 13.1449H3.83363L3.14648 19.3409L4.14268 19.756L4.28277 19.5163C4.48825 19.1602 4.82787 18.9013 5.22574 18.7975C5.62362 18.6937 6.04644 18.7538 6.39968 18.9642C6.76215 19.184 7.01939 19.542 7.11222 19.9556C7.12345 19.9526 7.13336 19.9465 7.14455 19.9435C7.54833 19.8391 7.97721 19.903 8.33304 20.1206C8.68887 20.3382 8.94113 20.6908 9.03215 21.0979C9.04294 21.0948 9.05285 21.0892 9.06403 21.0863C9.46049 20.982 9.88229 21.0425 10.2335 21.2539C10.5975 21.4728 10.8564 21.831 10.9499 22.2453C10.9615 22.2423 10.9714 22.2363 10.9831 22.2333C11.3796 22.1288 11.8015 22.1895 12.1525 22.4014C12.8386 22.8129 13.1023 23.6766 12.7629 24.4011L13.0832 24.6498C13.2218 24.7562 13.3972 24.8028 13.5703 24.7791C13.742 24.7571 13.8974 24.6667 14.0014 24.5282L14.0169 24.5088C14.222 24.2142 14.1635 23.8111 13.8832 23.5868C13.694 23.4407 13.659 23.1687 13.8052 22.9795C13.9514 22.7902 14.2233 22.7553 14.4126 22.9014C14.5489 23.0077 14.7222 23.055 14.8937 23.0326C15.0652 23.0103 15.2206 22.9202 15.3251 22.7824C15.5518 22.4884 15.4997 22.0667 15.2083 21.8367L15.201 21.8311C15.0161 21.6842 14.9838 21.4159 15.1286 21.2293C15.2733 21.0427 15.5412 21.0073 15.7295 21.15C15.7336 21.1527 15.7374 21.1557 15.7411 21.159L16.0243 21.3797C16.1612 21.4869 16.3355 21.5344 16.5079 21.5115C16.6802 21.4887 16.8361 21.3974 16.9403 21.2582C17.0502 21.1181 17.0995 20.9399 17.0773 20.7633C17.0552 20.5867 16.9633 20.4262 16.8223 20.3176L16.4809 20.0504C16.2932 19.9038 16.2598 19.6329 16.4063 19.4452C16.5529 19.2574 16.8238 19.224 17.0115 19.3706C17.2817 19.5937 17.6758 19.5806 17.9305 19.34C18.0599 19.2001 18.1232 19.0114 18.1043 18.8218C18.0755 18.5585 17.9366 18.3197 17.7219 18.1645L13.3829 15.1311C13.1984 14.9971 12.9415 15.03 12.7967 15.2061L10.7965 17.598C10.124 18.3989 8.93546 18.5171 8.11838 17.8644C7.58349 17.4374 7.47596 16.6666 7.87354 16.1096L9.85856 13.2741C10.2698 12.6862 10.8213 12.2103 11.4629 11.8895L12.1203 11.5598C11.3374 11.329 10.4964 11.4003 9.76368 11.7599Z" fill="#11E09D"/>
<path fill-rule="evenodd" clip-rule="evenodd" d="M11.368 23.0459C11.1291 23.0462 10.9082 23.1732 10.7878 23.3796L10.7106 23.5123L10.5895 23.721C10.4002 24.0503 10.5092 24.4705 10.8348 24.6663L10.8408 24.6702C10.9947 24.762 11.179 24.7883 11.3525 24.7435C11.526 24.6986 11.6744 24.5863 11.7645 24.4314L11.9637 24.0891C12.1543 23.7591 12.0454 23.3372 11.7188 23.1408C11.6126 23.078 11.4914 23.0453 11.368 23.0459Z" fill="#11E09D"/>
<path fill-rule="evenodd" clip-rule="evenodd" d="M19.8025 13.145C19.4683 13.1454 19.1386 13.0674 18.84 12.9174L16.5273 11.7587C15.6184 11.3096 14.5521 11.3096 13.6431 11.7587L11.8487 12.6579C11.3354 12.9148 10.8942 13.2956 10.565 13.7657L8.57779 16.6072C8.52481 16.6794 8.49629 16.7665 8.49634 16.856C8.49571 16.9865 8.55499 17.1101 8.65714 17.1913C9.10702 17.5521 9.76247 17.4879 10.1339 17.047L12.1353 14.6537C12.5669 14.132 13.3285 14.0332 13.879 14.4274L18.2326 17.4724C18.6496 17.7753 18.9166 18.2423 18.9663 18.7552C18.9753 18.8976 18.9645 19.0405 18.9344 19.1798L21.8402 19.1824L21.1673 13.145H19.8025Z" fill="#11E09D"/>
<path fill-rule="evenodd" clip-rule="evenodd" d="M2.11886 4.39446C2.28171 4.5309 2.50882 4.56073 2.70141 4.47093C2.89395 4.38113 3.0171 4.18796 3.0172 3.9755V3.66171H15.0868C15.5629 3.66171 15.9489 3.27575 15.9489 2.79961V1.93745C15.9489 1.4613 15.5629 1.07534 15.0868 1.07534H3.01715V0.761558C3.01705 0.549096 2.8939 0.355921 2.70136 0.266122C2.50882 0.176322 2.28166 0.206109 2.11881 0.342591L0.197178 1.94175C0.0720741 2.0482 0 2.20421 0 2.36848C0 2.53275 0.0720741 2.68876 0.197178 2.79521L2.11886 4.39446Z" fill="#11E09D"/>
<path fill-rule="evenodd" clip-rule="evenodd" d="M21.9837 5.07219V5.38598H9.91411C9.43796 5.38598 9.052 5.77193 9.052 6.24808V7.11019C9.052 7.58633 9.43796 7.97229 9.91411 7.97229H21.9837V8.28608C21.9836 8.49844 22.1064 8.69167 22.2987 8.78171C22.491 8.87175 22.7181 8.84241 22.8811 8.70632L24.8028 7.10579C24.9279 6.99934 25 6.84333 25 6.67906C25 6.51479 24.9279 6.35878 24.8028 6.25233L22.882 4.65312C22.7191 4.51669 22.492 4.48686 22.2994 4.57666C22.1069 4.66655 21.9838 4.85973 21.9837 5.07219Z" fill="#11E09D"/>
</g>
<defs>
<clipPath id="clip0_350_47">
<rect width="25" height="25" fill="white"/>
</clipPath>
</defs>
</svg>
