<svg width="45" height="45" viewBox="0 0 45 45" fill="none" xmlns="http://www.w3.org/2000/svg">
<g clip-path="url(#clip0_510_64)">
<path fill-rule="evenodd" clip-rule="evenodd" d="M10.1035 35.2996C10.0003 35.3001 9.89769 35.3134 9.79784 35.3391C9.4808 35.4215 9.21035 35.6282 9.04756 35.9125L8.7046 36.4984C8.35829 37.0972 8.55289 37.863 9.14302 38.224C9.4213 38.3907 9.75495 38.4382 10.0686 38.3559C10.3858 38.2728 10.6561 38.0656 10.8189 37.781L11.1619 37.196C11.2726 37.0023 11.3305 36.7829 11.3295 36.5597C11.3353 36.1159 11.1052 35.7025 10.725 35.4734C10.5374 35.3603 10.3226 35.3003 10.1035 35.2996Z" fill="#11E09D"/>
<path fill-rule="evenodd" clip-rule="evenodd" d="M40.18 22.1153C40.0052 22.116 39.8388 22.191 39.7225 22.3215C39.6062 22.452 39.5508 22.6259 39.5702 22.7996L40.8737 34.529L44.2256 34.5235V22.1091L40.18 22.1153Z" fill="#11E09D"/>
<path fill-rule="evenodd" clip-rule="evenodd" d="M5.28108 22.3202C5.16479 22.1891 4.9977 22.1145 4.82253 22.1154L0.775391 22.1091V34.5235L4.13114 34.529L5.43463 22.7996C5.45511 22.6252 5.39912 22.4503 5.28108 22.3202Z" fill="#11E09D"/>
<path fill-rule="evenodd" clip-rule="evenodd" d="M16.7058 39.459C16.3975 39.5378 16.1333 39.7364 15.9718 40.0106C15.9672 40.0199 15.9633 40.0301 15.9579 40.0386L15.6149 40.6259L15.6086 40.6344C15.268 41.2326 15.4671 41.9931 16.0571 42.3476C16.3341 42.5129 16.6658 42.5605 16.9781 42.4795C17.2903 42.3986 17.5572 42.196 17.7191 41.917L18.0714 41.3118C18.4169 40.7127 18.2188 39.9473 17.626 39.5908C17.3499 39.4241 17.0178 39.3766 16.7058 39.459Z" fill="#11E09D"/>
<path fill-rule="evenodd" clip-rule="evenodd" d="M13.5588 37.3625C13.4556 37.363 13.353 37.3763 13.2531 37.4021C12.9367 37.4844 12.6666 37.6905 12.5036 37.974L12.1599 38.5613C11.8135 39.1599 12.0076 39.9257 12.5975 40.2869C12.8757 40.4525 13.2085 40.5001 13.5219 40.419C13.8353 40.338 14.1034 40.1351 14.2664 39.8555L14.2711 39.8462L14.6226 39.241V39.2363C14.9504 38.641 14.7543 37.8933 14.1764 37.5355C13.9898 37.4235 13.7765 37.3637 13.5588 37.3625Z" fill="#11E09D"/>
<path fill-rule="evenodd" clip-rule="evenodd" d="M17.575 21.168L13.4139 23.2536C12.8773 23.5223 12.2853 23.6618 11.6852 23.661H6.90093L5.66406 34.8138L7.45721 35.561L7.70939 35.1296C8.07925 34.4885 8.69056 34.0225 9.40673 33.8357C10.1229 33.6489 10.884 33.757 11.5198 34.1357C12.1723 34.5314 12.6353 35.1758 12.8024 35.9202C12.8226 35.9148 12.8404 35.904 12.8606 35.8985C13.5874 35.7106 14.3594 35.8256 14.9999 36.2172C15.6403 36.6089 16.0944 37.2437 16.2583 37.9764C16.2777 37.9709 16.2955 37.9608 16.3156 37.9555C17.0293 37.7679 17.7885 37.8768 18.4207 38.2573C19.0759 38.6513 19.5418 39.296 19.7102 40.0418C19.7311 40.0364 19.7489 40.0256 19.7699 40.0201C20.4836 39.8321 21.2431 39.9413 21.8749 40.3227C23.11 41.0633 23.5845 42.6181 22.9736 43.9221L23.5501 44.3699C23.7997 44.5613 24.1153 44.6452 24.4269 44.6026C24.7359 44.5631 25.0158 44.4002 25.2028 44.151L25.2308 44.1161C25.5999 43.5858 25.4947 42.8602 24.9902 42.4565C24.6495 42.1934 24.5867 41.7039 24.8497 41.3632C25.1128 41.0226 25.6023 40.9597 25.943 41.2228C26.1885 41.4141 26.5004 41.4992 26.809 41.459C27.1177 41.4187 27.3974 41.2565 27.5856 41.0086C27.9937 40.4794 27.8999 39.7203 27.3753 39.3062L27.3621 39.2961C27.0294 39.0317 26.9712 38.5487 27.2318 38.2129C27.4924 37.877 27.9746 37.8134 28.3134 38.0702C28.3208 38.0751 28.3278 38.0805 28.3344 38.0864L28.8442 38.4837C29.0906 38.6765 29.4043 38.7621 29.7146 38.7209C30.0248 38.6798 30.3054 38.5154 30.493 38.2649C30.6907 38.0128 30.7795 37.692 30.7396 37.3741C30.6997 37.0562 30.5344 36.7674 30.2804 36.5719L29.666 36.0908C29.3281 35.8271 29.268 35.3393 29.5318 35.0015C29.7955 34.6636 30.2833 34.6035 30.6211 34.8672C31.1075 35.2688 31.8169 35.2453 32.2753 34.8121C32.5082 34.5603 32.6221 34.2208 32.588 33.8795C32.5364 33.4055 32.2863 32.9756 31.8998 32.6962L24.0896 27.2362C23.7576 26.995 23.2951 27.0542 23.0344 27.3712L19.4342 31.6767C18.2237 33.1182 16.0842 33.331 14.6135 32.1561C13.6507 31.3876 13.4571 30.0001 14.1728 28.9974L17.7458 23.8935C18.486 22.8354 19.4786 21.9788 20.6337 21.4013L21.8169 20.8078C20.4077 20.3923 18.8939 20.5208 17.575 21.168Z" fill="#11E09D"/>
<path fill-rule="evenodd" clip-rule="evenodd" d="M20.4621 41.4827C20.032 41.4833 19.6345 41.7118 19.4177 42.0833L19.2788 42.3223L19.0608 42.6978C18.72 43.2906 18.9163 44.047 19.5023 44.3994L19.5132 44.4063C19.7902 44.5716 20.1219 44.6191 20.4342 44.5384C20.7465 44.4576 21.0136 44.2553 21.1759 43.9765L21.5343 43.3605C21.8775 42.7665 21.6815 42.0071 21.0936 41.6535C20.9024 41.5405 20.6842 41.4815 20.4621 41.4827Z" fill="#11E09D"/>
<path fill-rule="evenodd" clip-rule="evenodd" d="M35.6441 23.6608C35.0424 23.6615 34.449 23.5211 33.9115 23.2511L29.7488 21.1654C28.1127 20.357 26.1933 20.357 24.5572 21.1654L21.3272 22.7839C20.4033 23.2464 19.6092 23.9318 19.0165 24.778L15.4396 29.8927C15.3442 30.0225 15.2929 30.1793 15.293 30.3405C15.2918 30.5754 15.3985 30.7979 15.5824 30.9441C16.3922 31.5934 17.572 31.478 18.2406 30.6842L21.8431 26.3764C22.6199 25.4373 23.9908 25.2594 24.9817 25.9691L32.8183 31.4501C33.5688 31.9953 34.0495 32.8359 34.139 33.7591C34.155 34.0154 34.1357 34.2725 34.0816 34.5234L39.3119 34.5281L38.1007 23.6608H35.6441Z" fill="#11E09D"/>
<path fill-rule="evenodd" clip-rule="evenodd" d="M3.81395 7.91004C4.10708 8.15562 4.51588 8.20932 4.86254 8.04768C5.20911 7.88604 5.43078 7.53833 5.43096 7.15589V6.59108H27.1562C28.0133 6.59108 28.708 5.89636 28.708 5.03929V3.48741C28.708 2.63034 28.0132 1.93562 27.1562 1.93562H5.43087V1.3708C5.4307 0.988372 5.20902 0.640659 4.86245 0.479019C4.51588 0.31738 4.10699 0.370996 3.81386 0.616663L0.354921 3.49514C0.129733 3.68676 0 3.96758 0 4.26326C0 4.55894 0.129733 4.83977 0.354921 5.03138L3.81395 7.91004Z" fill="#11E09D"/>
<path fill-rule="evenodd" clip-rule="evenodd" d="M39.571 9.12975V9.69456H17.8457C16.9887 9.69456 16.2939 10.3893 16.2939 11.2464V12.7981C16.2939 13.6552 16.9887 14.3499 17.8457 14.3499H39.571V14.9147C39.5708 15.297 39.7919 15.6448 40.138 15.8069C40.4841 15.969 40.8929 15.9161 41.1864 15.6712L44.6454 12.7902C44.8705 12.5986 45.0003 12.3178 45.0003 12.0221C45.0003 11.7264 44.8705 11.4456 44.6454 11.254L41.1879 8.37543C40.8948 8.12985 40.486 8.07615 40.1393 8.23778C39.7928 8.3996 39.5712 8.74731 39.571 9.12975Z" fill="#11E09D"/>
</g>
<defs>
<clipPath id="clip0_510_64">
<rect width="45" height="45" fill="white"/>
</clipPath>
</defs>
</svg>
