<svg width="25" height="25" viewBox="0 0 25 25" fill="none" xmlns="http://www.w3.org/2000/svg">
<g clip-path="url(#clip0_350_18)">
<path d="M2.19781 4.77961C2.46407 5.00119 2.83012 5.05957 3.1521 4.93181C3.47407 4.80404 3.7005 4.51055 3.74239 4.1667H14.9999C15.6902 4.1667 16.2499 3.60705 16.2499 2.9167V2.08336C16.2499 1.39301 15.6902 0.833365 14.9999 0.833365H3.74239C3.70054 0.489592 3.47423 0.196146 3.15238 0.0683082C2.83053 -0.0595294 2.46455 -0.00133417 2.19823 0.220031L0.336559 1.77045C0.122063 1.95309 -0.00120747 2.22085 -0.000485124 2.50257C0.000237226 2.78428 0.124879 3.05141 0.340309 3.23295L2.19781 4.77961ZM0.874892 2.40753L2.73198 0.860031C2.75131 0.843225 2.77595 0.833782 2.80156 0.833365C2.81867 0.833759 2.83553 0.837585 2.85114 0.844615C2.89205 0.861737 2.91809 0.902381 2.91656 0.946698V1.25003C2.91656 1.48015 3.10311 1.6667 3.33323 1.6667H14.9999C15.23 1.6667 15.4166 1.85325 15.4166 2.08336V2.9167C15.4166 3.14682 15.23 3.33336 14.9999 3.33336H3.33323C3.10311 3.33336 2.91656 3.51991 2.91656 3.75003V4.05336C2.91823 4.09748 2.89255 4.13806 2.85198 4.15545C2.81253 4.17456 2.7655 4.16833 2.73239 4.13962L0.877809 2.59545C0.84962 2.57176 0.833309 2.53685 0.833226 2.50003C0.832984 2.4646 0.848198 2.43083 0.874892 2.40753Z" fill="#11E09D"/>
<path d="M22.8021 4.38689C22.5358 4.16531 22.1698 4.10693 21.8478 4.2347C21.5258 4.36246 21.2994 4.65595 21.2575 4.99981H10C9.30964 4.99981 8.75 5.55945 8.75 6.24981V7.08314C8.75 7.77349 9.30964 8.33314 10 8.33314H21.2575C21.298 8.67769 21.5243 8.97225 21.8467 9.10032C22.1691 9.22838 22.5358 9.16931 22.8017 8.94647L24.6633 7.39606C24.8778 7.21342 25.0011 6.94565 25.0004 6.66394C24.9997 6.38222 24.875 6.11509 24.6596 5.93356L22.8021 4.38689ZM24.125 6.75897L22.2671 8.30647C22.2336 8.33432 22.187 8.34025 22.1476 8.32167C22.1082 8.30309 22.0831 8.26336 22.0833 8.21981V7.91647C22.0833 7.68635 21.8968 7.49981 21.6667 7.49981H10C9.76988 7.49981 9.58333 7.31326 9.58333 7.08314V6.24981C9.58333 6.01969 9.76988 5.83314 10 5.83314H21.6667C21.8968 5.83314 22.0833 5.64659 22.0833 5.41647V5.11314C22.0817 5.06902 22.1073 5.02844 22.1479 5.01106C22.1873 4.99148 22.2346 4.99775 22.2675 5.02689L24.1212 6.57106C24.1497 6.59458 24.1664 6.62952 24.1667 6.66647C24.1669 6.7019 24.1517 6.73568 24.125 6.75897Z" fill="#11E09D"/>
<path d="M24.1667 11.2498L21.9937 11.2532C21.4794 11.2517 21.0258 11.5898 20.8804 12.0832H19.5583C19.3656 12.0839 19.1755 12.0391 19.0033 11.9523L16.7629 10.8298C15.651 10.2798 14.3461 10.2798 13.2342 10.8298L13.1246 10.8848L13.0129 10.8282C11.9009 10.2786 10.5962 10.2786 9.48417 10.8282L7.24458 11.9503C7.07333 12.0375 6.88387 12.0831 6.69167 12.0832H4.11958C3.97428 11.5901 3.52111 11.252 3.00708 11.2532L0.833333 11.2498C0.373096 11.2498 0 11.6229 0 12.0832V18.7498C0 19.2101 0.373096 19.5832 0.833333 19.5832L2.92458 19.5865L4.17458 20.1073C4.15531 20.6532 4.4322 21.167 4.89875 21.4511C5.12802 21.5885 5.39022 21.6612 5.6575 21.6615C5.78404 21.6613 5.91004 21.645 6.0325 21.6132C6.04333 21.6103 6.05333 21.6048 6.06417 21.6015C6.1539 22.0015 6.40295 22.3477 6.75375 22.5598C6.98306 22.6965 7.24513 22.7685 7.51208 22.7682C7.63862 22.768 7.76462 22.7517 7.88708 22.7198C7.89792 22.7169 7.9075 22.7115 7.91833 22.7086C8.00886 23.1091 8.259 23.4553 8.61083 23.6669C8.95043 23.8714 9.3583 23.9299 9.74167 23.829C9.75125 23.8265 9.76 23.8215 9.76958 23.819C9.85755 24.2133 10.1029 24.5544 10.4487 24.7632L10.4546 24.7665L10.4662 24.774C10.6947 24.9115 10.9563 24.9842 11.2229 24.9844C11.3494 24.9845 11.4755 24.9684 11.5979 24.9365C11.8724 24.8654 12.1204 24.7163 12.3121 24.5073L12.555 24.6961C12.8104 24.8933 13.124 25.0003 13.4467 25.0003C13.5137 25.0002 13.5807 24.9956 13.6471 24.9865C14.0241 24.9369 14.3665 24.741 14.6004 24.4411C14.6071 24.4336 14.6138 24.4253 14.6196 24.4173C14.8604 24.0987 14.9625 23.6964 14.9029 23.3015L14.9213 23.2994C15.3081 23.2504 15.6586 23.0471 15.8933 22.7357C16.0917 22.4785 16.1995 22.163 16.2 21.8382C16.2946 21.8438 16.3894 21.8404 16.4833 21.8278C16.8694 21.7784 17.2192 21.5753 17.4533 21.2644C17.6538 21.0062 17.7626 20.6885 17.7625 20.3615C17.7628 20.195 17.7355 20.0295 17.6817 19.8719C17.8866 19.819 18.077 19.7202 18.2383 19.5832L21.9883 19.5865H21.9908L24.1667 19.5832C24.6269 19.5832 25 19.2101 25 18.7498V12.0832C25 11.6229 24.6269 11.2498 24.1667 11.2498ZM16.3929 11.5765L18.6283 12.6965C18.9169 12.8415 19.2354 12.9168 19.5583 12.9165H20.8775L21.5262 18.7523L18.7175 18.7498C18.7471 18.6152 18.7581 18.4771 18.75 18.3394C18.7024 17.8435 18.4445 17.3917 18.0417 17.0986L13.8333 14.1553C13.3013 13.7742 12.5651 13.8697 12.1479 14.374L10.2129 16.6882C9.85386 17.1145 9.22025 17.1764 8.78542 16.8278C8.68667 16.7492 8.62939 16.6298 8.63 16.5036C8.62996 16.4171 8.65755 16.3329 8.70875 16.2632L10.63 13.5178C10.9483 13.0633 11.3747 12.6953 11.8708 12.4469L13.6054 11.5778C14.4836 11.1435 15.5139 11.143 16.3925 11.5765H16.3929ZM0.833333 12.0832L3.00708 12.0865C3.1012 12.0865 3.19086 12.1266 3.25361 12.1968C3.31636 12.2669 3.34626 12.3605 3.33583 12.454L2.63542 18.7528L0.833333 18.7498V12.0832ZM5.32667 20.7361C5.00976 20.5422 4.9053 20.131 5.09125 19.8094L5.27542 19.4948C5.36282 19.3422 5.50807 19.2312 5.67833 19.1869C5.732 19.1734 5.78714 19.1665 5.8425 19.1665C5.95996 19.1668 6.07514 19.1989 6.17583 19.2594C6.37996 19.3824 6.50352 19.6045 6.50042 19.8428C6.50093 19.9626 6.46989 20.0804 6.41042 20.1844L6.22625 20.4986C6.13883 20.6514 5.99364 20.7627 5.82333 20.8073C5.65493 20.8513 5.47592 20.8256 5.32667 20.7361ZM7.18167 21.8448C6.86491 21.6509 6.76064 21.2397 6.94667 20.9182L7.13125 20.6028C7.21876 20.4505 7.36381 20.3399 7.53375 20.2957C7.58738 20.2818 7.64252 20.2747 7.69792 20.2744C7.81538 20.2747 7.93057 20.3068 8.03125 20.3673C8.34152 20.5595 8.44685 20.961 8.27083 21.2807V21.2832L8.08208 21.6082L8.07958 21.6132C7.992 21.7634 7.84805 21.8723 7.67974 21.9158C7.51143 21.9593 7.33271 21.9338 7.18333 21.8448H7.18167ZM9.04167 22.9515C8.72483 22.7612 8.6179 22.3527 8.80083 22.0315L8.80417 22.0269L8.98833 21.7115C8.99125 21.7069 8.99333 21.7015 8.99583 21.6965C9.08356 21.5486 9.22654 21.4417 9.39322 21.3994C9.55989 21.3571 9.73654 21.3829 9.88417 21.4711C10.2025 21.6625 10.3089 22.0735 10.1233 22.3953L9.93417 22.7203C9.84724 22.8701 9.70393 22.9789 9.53623 23.0224C9.36854 23.0658 9.19042 23.0403 9.04167 22.9515ZM11.3912 24.1294C11.2236 24.1739 11.0451 24.1483 10.8967 24.0586L10.8908 24.0548C10.5762 23.8656 10.4708 23.4594 10.6537 23.1411L10.7708 22.9394L10.8454 22.8111C10.9618 22.6117 11.1753 22.4889 11.4062 22.4886C11.5254 22.4891 11.6421 22.5218 11.7442 22.5832C12.0598 22.7731 12.1651 23.1809 11.9808 23.4998L11.7883 23.8307C11.7009 23.9799 11.557 24.0876 11.3892 24.1294H11.3912ZM16.8604 18.9328C16.679 18.7911 16.4171 18.8234 16.2754 19.0048C16.1338 19.1863 16.1661 19.4482 16.3475 19.5898L16.6775 19.8482C16.8139 19.9531 16.9026 20.1082 16.9241 20.279C16.9455 20.4497 16.8979 20.6219 16.7917 20.7573C16.6909 20.8919 16.5402 20.9801 16.3737 21.0022C16.2071 21.0243 16.0386 20.9784 15.9062 20.8748L15.6325 20.6615C15.629 20.6583 15.6252 20.6554 15.6213 20.6528C15.4393 20.5149 15.1803 20.5491 15.0404 20.7294C14.9005 20.9098 14.9317 21.1691 15.1104 21.3111L15.1175 21.3165C15.3992 21.5388 15.4496 21.9465 15.2304 22.2307C15.1293 22.3638 14.9792 22.4509 14.8134 22.4725C14.6477 22.4941 14.4802 22.4485 14.3483 22.3457C14.2224 22.2483 14.052 22.2311 13.9092 22.3015C13.7789 22.3651 13.6908 22.4914 13.676 22.6355C13.6613 22.7797 13.722 22.9212 13.8367 23.0098C14.1076 23.2266 14.1641 23.6163 13.9658 23.9011L13.9508 23.9198C13.8504 24.0537 13.7001 24.1411 13.5342 24.1623C13.3668 24.1852 13.1973 24.1402 13.0633 24.0373L12.7537 23.7969C13.0828 23.0972 12.8292 22.2619 12.1667 21.8632C11.8274 21.6583 11.4195 21.5997 11.0362 21.7007C11.025 21.7036 11.0154 21.7094 11.0042 21.7123C10.9137 21.3118 10.6636 20.9656 10.3117 20.754C9.97217 20.5497 9.56449 20.4912 9.18125 20.5919C9.17042 20.5948 9.16083 20.6003 9.15042 20.6032C9.06244 20.2097 8.81858 19.8688 8.47464 19.6585C8.13071 19.4482 7.71615 19.3864 7.32583 19.4873C7.315 19.4903 7.30542 19.4961 7.29458 19.499C7.20467 19.0991 6.95566 18.753 6.605 18.5407C6.26359 18.3368 5.85467 18.2783 5.46981 18.3784C5.08495 18.4785 4.75631 18.7288 4.5575 19.0732L4.42208 19.3048L3.45833 18.9057L4.1225 12.9165H6.69167C7.01393 12.9169 7.33183 12.842 7.62 12.6978L9.85458 11.5778C10.5627 11.2298 11.3756 11.1604 12.1325 11.3832L11.4971 11.7019C10.8767 12.0124 10.3436 12.4728 9.94625 13.0415L8.0275 15.7836C7.64318 16.3221 7.74713 17.0671 8.26417 17.4798C9.05398 18.1108 10.2029 17.9965 10.8529 17.2223L12.7863 14.9103C12.9262 14.74 13.1746 14.7083 13.3529 14.8378L17.5479 17.7698C17.7548 17.9197 17.8888 18.1501 17.9167 18.404C17.9345 18.5871 17.8731 18.7691 17.7479 18.904C17.5016 19.1359 17.1212 19.1482 16.8604 18.9328ZM24.1667 18.7498L22.365 18.7528L21.6667 12.454C21.6562 12.3603 21.6862 12.2666 21.7492 12.1965C21.8121 12.1263 21.902 12.0863 21.9963 12.0865L24.1667 12.0832V18.7498Z" fill="#11E09D"/>
</g>
<defs>
<clipPath id="clip0_350_18">
<rect width="25" height="25" fill="white"/>
</clipPath>
</defs>
</svg>
